<?xml version="1.0" encoding="utf-8"?>
<!-- Generator: Adobe Illustrator 23.0.1, SVG Export Plug-In . SVG Version: 6.00 Build 0)  -->
<svg version="1.1" id="facebook_x5F_hover" xmlns="http://www.w3.org/2000/svg" xmlns:xlink="http://www.w3.org/1999/xlink" x="0px"
	 y="0px" viewBox="0 0 65.5 65.5" style="enable-background:new 0 0 65.5 65.5;" xml:space="preserve">
<style type="text/css">
	.st0{fill:#FFFFFF;}
	.st1{fill-rule:evenodd;clip-rule:evenodd;fill:#9ABD4B;}
</style>
<circle id="white_x5F_circle" class="st0" cx="32.8" cy="32.8" r="26"/>
<path id="line_x5F_circle" class="st0" d="M32.8,0C41.8,0,50,3.7,55.9,9.6c5.9,5.9,9.6,14.1,9.6,23.2c0,9.1-3.7,17.2-9.6,23.2
	c-5.9,5.9-14.1,9.6-23.2,9.6c-9.1,0-17.2-3.7-23.2-9.6C3.7,50,0,41.8,0,32.8c0-9.1,3.7-17.2,9.6-23.2C15.5,3.7,23.7,0,32.8,0L32.8,0
	z M54.1,11.4c-5.5-5.5-13-8.9-21.4-8.9c-8.3,0-15.9,3.4-21.3,8.9c-5.5,5.5-8.9,13-8.9,21.3c0,8.3,3.4,15.9,8.9,21.4
	c5.5,5.5,13,8.8,21.3,8.8c8.3,0,15.9-3.4,21.4-8.8c5.5-5.5,8.8-13,8.8-21.4C63,24.4,59.6,16.9,54.1,11.4L54.1,11.4z"/>
<path id="facebook" class="st1" d="M34.7,27.4v-2.1c0-1,0.7-1.3,1.2-1.3c0.5,0,3,0,3,0v-4.5h-4.1c-4.6,0-5.6,3.4-5.6,5.5v2.4h-2.6
	v3.2v2.1h2.7c0,6,0,13.3,0,13.3h5.3c0,0,0-7.3,0-13.3h3.9l0.2-2.1l0.3-3.2H34.7z"/>
</svg>
