<?xml version="1.0" encoding="utf-8"?>
<!-- Generator: Adobe Illustrator 23.0.1, SVG Export Plug-In . SVG Version: 6.00 Build 0)  -->
<svg version="1.1" id="fundraising" xmlns="http://www.w3.org/2000/svg" xmlns:xlink="http://www.w3.org/1999/xlink" x="0px"
	 y="0px" viewBox="0 0 70.5 97.9" style="enable-background:new 0 0 70.5 97.9;" xml:space="preserve">
<style type="text/css">
	.st0{fill:#9ABD4B;stroke:#9ABD4B;stroke-miterlimit:10;}
	.st1{fill:#9ABD4B;}
	.st2{fill:#9ABD4B;stroke:#9ABD4B;stroke-width:0.5;stroke-miterlimit:10;}
	.st3{fill:#5D7132;stroke:#5D7132;stroke-miterlimit:10;}
	.st4{fill:#5D7132;}
</style>
<g id="grow">
	<g>
		<path class="st0" d="M45.5,51.9c-2.8,0-5.9-0.3-9.1-1c-0.3-0.1-0.6-0.3-0.6-0.6c-2.3-11.3-0.5-20.2,5-25.8c4-4,9.6-6,16.7-6
			c2.8,0,5.9,0.3,9.1,1c0.3,0.1,0.6,0.3,0.6,0.6c2.3,11.3,0.5,20.2-5,25.8C58.2,49.9,52.6,51.9,45.5,51.9z M37.2,49.5
			c2.9,0.5,5.7,0.8,8.2,0.8c6.7,0,11.9-1.8,15.6-5.5c5.1-5,6.7-13.3,4.7-23.8c-2.9-0.5-5.7-0.8-8.2-0.8c-6.7,0-11.9,1.8-15.6,5.5
			C36.9,30.8,35.2,39,37.2,49.5z"/>
	</g>
	<g>
		<path class="st0" d="M28.3,52.1L28.3,52.1c-5,0-8.9-1.4-11.6-4.2c-3.8-3.8-5.1-10-3.5-17.9c0.1-0.3,0.3-0.6,0.6-0.6
			c2.2-0.4,4.3-0.7,6.2-0.7c4.9,0,8.9,1.4,11.6,4.2c3.9,3.9,5.1,10,3.5,17.9c-0.1,0.3-0.3,0.6-0.6,0.6
			C32.3,51.9,30.2,52.1,28.3,52.1z M14.6,31c-1.3,7-0.2,12.5,3.2,15.9c2.4,2.5,6,3.7,10.5,3.7l0,0c1.7,0,3.5-0.2,5.4-0.5
			c1.3-7,0.2-12.5-3.2-15.9C27.1,30.8,21.6,29.7,14.6,31z"/>
	</g>
	<g>
		<path class="st1" d="M36.6,51c-0.2,0-0.4-0.1-0.6-0.2c-0.3-0.3-0.3-0.8,0-1.1l20-20.8c0.3-0.3,0.8-0.3,1.1,0s0.3,0.8,0,1.1
			l-20,20.8C37,50.9,36.8,51,36.6,51z"/>
	</g>
	<g>
		<path class="st0" d="M35.2,59.1c-0.4,0-0.8-0.4-0.8-0.8V15.2c0-0.4,0.4-0.8,0.8-0.8s0.8,0.4,0.8,0.8v43.1
			C36,58.8,35.7,59.1,35.2,59.1z"/>
	</g>
	<g>
		<path class="st1" d="M48.9,38.1c-0.4,0-0.8-0.3-0.8-0.7L47.2,26c0-0.4,0.3-0.8,0.7-0.9s0.8,0.3,0.9,0.7l0.9,11.4
			C49.8,37.7,49.4,38.1,48.9,38.1C49,38.1,48.9,38.1,48.9,38.1z"/>
	</g>
	<g>
		<path class="st1" d="M41.3,46.1c-0.4,0-0.7-0.3-0.8-0.7s0.2-0.9,0.7-0.9l12.3-1.9c0.4-0.1,0.9,0.2,0.9,0.7
			c0.1,0.4-0.2,0.9-0.7,0.9l-12.3,1.9H41.3z"/>
	</g>
	<g>
		<path class="st1" d="M34.4,51.5c-0.2,0-0.4-0.1-0.6-0.2L20,36.9c-0.3-0.3-0.3-0.8,0-1.1s0.8-0.3,1.1,0l13.8,14.4
			c0.3,0.3,0.3,0.8,0,1.1C34.8,51.4,34.6,51.5,34.4,51.5z"/>
	</g>
	<g>
		<path class="st1" d="M19.1,43.2c-0.3,0-0.6-0.2-0.8-0.5c-0.2-0.4,0.1-0.9,0.5-1l5.1-1.9c0.4-0.2,0.9,0.1,1,0.5
			c0.2,0.4-0.1,0.9-0.5,1l-5.1,1.9C19.2,43.2,19.2,43.2,19.1,43.2z"/>
	</g>
	<g>
		<path class="st1" d="M29.8,46.7L29.8,46.7c-0.5,0-0.8-0.4-0.8-0.9l0.5-7.6c0-0.4,0.4-0.8,0.9-0.8c0.4,0,0.8,0.4,0.8,0.9L30.6,46
			C30.6,46.4,30.2,46.7,29.8,46.7z"/>
	</g>
	<g>
		<path class="st1" d="M6.2,29.9c-2,0-3.7-1.7-3.7-3.7s1.7-3.7,3.7-3.7s3.7,1.7,3.7,3.7C9.9,28.3,8.3,29.9,6.2,29.9z M6.2,24.2
			c-1.1,0-2.1,0.9-2.1,2.1c0,1.1,0.9,2.1,2.1,2.1c1.1,0,2.1-0.9,2.1-2.1C8.3,25.1,7.4,24.2,6.2,24.2z"/>
	</g>
	<g>
		<path class="st1" d="M64.2,9.7c-2,0-3.7-1.7-3.7-3.7s1.7-3.7,3.7-3.7S67.9,4,67.9,6C67.8,8,66.2,9.7,64.2,9.7z M64.2,3.9
			c-1.1,0-2.1,0.9-2.1,2.1c0,1.1,0.9,2.1,2.1,2.1c1.1,0,2.1-0.9,2.1-2.1C66.2,4.9,65.3,3.9,64.2,3.9z"/>
	</g>
	<g>
		<path class="st2" d="M31,17.3L31,17.3c-3.6,0-6.5-1-8.5-3.1c-2.8-2.8-3.7-7.4-2.6-13.1c0.1-0.3,0.3-0.6,0.6-0.6
			c5.7-1.1,10.3-0.2,13.1,2.6s3.7,7.4,2.6,13.1c-0.1,0.3-0.3,0.6-0.6,0.6C34,17.1,32.4,17.3,31,17.3z M21.4,2
			c-0.9,4.9-0.1,8.8,2.3,11.1c1.7,1.7,4.2,2.6,7.4,2.6l0,0c1.2,0,2.4-0.1,3.7-0.4c0.9-4.9,0.1-8.8-2.2-11.1
			C30.1,1.9,26.3,1.1,21.4,2z"/>
	</g>
	<g>
		<path class="st1" d="M35.4,16.8c-0.2,0-0.4-0.1-0.6-0.2l-7-7.3c-0.3-0.3-0.3-0.8,0-1.1s0.8-0.3,1.1,0l7,7.3c0.3,0.3,0.3,0.8,0,1.1
			C35.8,16.8,35.6,16.8,35.4,16.8z"/>
	</g>
</g>
<g id="donation">
	<g>
		<path class="st3" d="M69.7,97.9H0.8c-0.4,0-0.8-0.4-0.8-0.8V58.3c0-0.4,0.4-0.8,0.8-0.8h68.9c0.4,0,0.8,0.4,0.8,0.8v38.8
			C70.5,97.6,70.1,97.9,69.7,97.9z M1.6,96.3h67.3V59.1H1.6V96.3z"/>
	</g>
	<g>
		<path class="st4" d="M69.7,69.2c-6,0-10.9-4.9-10.9-10.9c0-0.4,0.4-0.8,0.8-0.8h10.1c0.4,0,0.8,0.4,0.8,0.8v10.1
			C70.5,68.8,70.1,69.2,69.7,69.2z M60.5,59.1c0.4,4.5,4,8,8.4,8.4v-8.4H60.5z"/>
	</g>
	<g>
		<path class="st4" d="M0.8,69.2c-0.4,0-0.8-0.4-0.8-0.8V58.3c0-0.4,0.4-0.8,0.8-0.8h10.1c0.4,0,0.8,0.4,0.8,0.8
			C11.7,64.3,6.8,69.2,0.8,69.2z M1.6,59.1v8.4c4.5-0.4,8-4,8.4-8.4H1.6z"/>
	</g>
	<g>
		<path class="st4" d="M10.9,97.9L10.9,97.9H0.8c-0.4,0-0.8-0.4-0.8-0.8v-10c0-0.4,0.4-0.8,0.8-0.8c5.9,0,10.8,4.8,10.9,10.7
			c0,0.1,0,0.1,0,0.2C11.7,97.6,11.3,97.9,10.9,97.9z M1.6,96.3H10c-0.4-4.5-4-8-8.4-8.4C1.6,87.9,1.6,96.3,1.6,96.3z"/>
	</g>
	<g>
		<path class="st4" d="M69.7,97.9H59.6c-0.4,0-0.8-0.4-0.8-0.8c0-6,4.9-10.9,10.9-10.9c0.4,0,0.8,0.4,0.8,0.8v10.1
			C70.5,97.6,70.1,97.9,69.7,97.9z M60.5,96.3h8.4v-8.4C64.4,88.3,60.8,91.9,60.5,96.3z"/>
	</g>
	<g>
		<path class="st4" d="M35.2,90.1c-6.8,0-12.3-5.5-12.3-12.3s5.5-12.3,12.3-12.3S47.5,71,47.5,77.8C47.6,84.5,42,90.1,35.2,90.1z
			 M35.2,67c-5.9,0-10.7,4.8-10.7,10.7c0,5.9,4.8,10.7,10.7,10.7s10.7-4.8,10.7-10.7C46,71.8,41.2,67,35.2,67z"/>
	</g>
	<path class="st4" d="M35.8,81.4c0.4-0.1,0.7-0.3,0.9-0.5c0.2-0.3,0.4-0.6,0.4-1c0-0.3-0.1-0.6-0.3-0.9s-0.5-0.4-1-0.6
		C35.8,78.4,35.8,81.4,35.8,81.4z M34.7,73.4c-0.3,0.1-0.5,0.3-0.7,0.5s-0.3,0.5-0.3,0.8s0.1,0.5,0.2,0.7c0.2,0.2,0.4,0.4,0.7,0.6
		L34.7,73.4L34.7,73.4z M34.7,81.3v-3.1c-1-0.3-1.7-0.7-2.1-1.3c-0.5-0.6-0.7-1.3-0.7-2.1c0-0.8,0.3-1.5,0.8-2.1s1.2-0.9,2.1-1V71
		h1.1v0.7c0.8,0.1,1.4,0.4,1.9,0.8c0.5,0.5,0.8,1.1,0.9,1.8l-1.9,0.3c-0.1-0.6-0.4-1-0.9-1.2v2.9c1.2,0.3,2,0.7,2.5,1.3
		c0.4,0.5,0.7,1.2,0.7,2c0,0.9-0.3,1.7-0.8,2.3c-0.5,0.6-1.3,1-2.3,1.2v1.4h-1.1v-1.4c-0.9-0.1-1.6-0.4-2.1-1
		c-0.5-0.5-0.9-1.3-1-2.3l2-0.2c0.1,0.4,0.2,0.7,0.5,1C34.2,80.9,34.4,81.1,34.7,81.3z"/>
</g>
</svg>
