<?xml version="1.0" encoding="utf-8"?>
<!-- Generator: Adobe Illustrator 23.0.1, SVG Export Plug-In . SVG Version: 6.00 Build 0)  -->
<svg version="1.1" id="memberships_x5F_icon" xmlns="http://www.w3.org/2000/svg" xmlns:xlink="http://www.w3.org/1999/xlink"
	 x="0px" y="0px" viewBox="0 0 73.3 97.6" style="enable-background:new 0 0 73.3 97.6;" xml:space="preserve">
<style type="text/css">
	.st0{fill:#9ABD4B;}
	.st1{fill:#5D7132;}
</style>
<g>
	<path class="st0" d="M0,0v97.6h14.1v-3.1h-11V3.1h50.6v16.6h16.6v74.9H35.4v3.1h37.8V17.3L55.8,0H0z M56.7,5.2l11.5,11.4H56.7V5.2z
		"/>
	
		<rect x="18.2" y="33.6" transform="matrix(1 -1.099999e-03 1.099999e-03 1 -3.858554e-02 4.363827e-02)" class="st1" width="42.8" height="3.1"/>
	
		<rect x="18.2" y="39.7" transform="matrix(1 -1.064685e-03 1.064685e-03 1 -4.391017e-02 4.224016e-02)" class="st1" width="42.8" height="3.1"/>
	
		<rect x="18.2" y="45.7" transform="matrix(1 -1.064685e-03 1.064685e-03 1 -5.026983e-02 4.224354e-02)" class="st1" width="42.8" height="3.1"/>
	
		<rect x="18.2" y="51.8" transform="matrix(1 -1.064685e-03 1.064685e-03 1 -5.676474e-02 4.224700e-02)" class="st1" width="42.8" height="3.1"/>
	
		<rect x="18.2" y="57.9" transform="matrix(1 -1.780915e-03 1.780915e-03 1 -0.1058 5.537294e-02)" class="st1" width="25.6" height="3.1"/>
	<rect x="12.3" y="15.3" class="st1" width="18.4" height="3.1"/>
	<path class="st1" d="M50.9,85c0.6,0.3,1.3,0.5,2,0.5h3.6l1.4-1.4c1.4-1.3,3.2-2.3,5.1-2.7l-0.7-3c-2.4,0.6-4.7,1.8-6.5,3.5
		l-0.6,0.5h-1.5l0.4-0.4c1.9-1.9,1.9-4.9,0-6.8l-0.1-0.1c-1.8-1.8-5-1.8-6.8,0C46.5,76,46,77.2,46,78.5c0,1.3,0.5,2.5,1.4,3.4
		l0.6,0.6h-3.5v3.1h4.3C49.6,85.5,50.3,85.3,50.9,85z M49.6,77.2c0.3-0.3,0.8-0.5,1.2-0.5c0.5,0,0.9,0.2,1.2,0.5l0.1,0.1
		c0.7,0.7,0.7,1.8,0,2.5L50.9,81l-1.4-1.4c-0.3-0.3-0.5-0.8-0.5-1.2C49,78,49.2,77.6,49.6,77.2z"/>
	<path class="st1" d="M24.6,68.6h-0.2c-4.2,0-7.5,3.4-7.5,7.5v0.1v0.1v21.3l7.8-5.9l7.5,5.7v-21c0,0,0,0,0,0v-0.2
		C32.1,72,28.7,68.6,24.6,68.6z M29,91.2l-4.5-3.4l-4.7,3.6v-9.1c1.3,0.9,2.8,1.5,4.5,1.5h0.2c1.7,0,3.2-0.6,4.5-1.5V91.2z M29,76.3
		L29,76.3c0,0.1,0,0.1,0,0.1c0,2.5-2,4.5-4.5,4.5h-0.2c-2.5,0-4.5-2-4.5-4.5v-0.1v-0.1c0-2.5,2-4.5,4.5-4.5h0.2
		C27,71.7,29,73.7,29,76.3L29,76.3z"/>
	<rect x="12.3" y="33.6" class="st1" width="3" height="3.1"/>
	<rect x="12.3" y="39.7" class="st1" width="3" height="3.1"/>
	<rect x="12.3" y="45.7" class="st1" width="3" height="3.1"/>
	<rect x="12.3" y="51.8" class="st1" width="3" height="3.1"/>
	<rect x="12.3" y="57.9" class="st1" width="3" height="3.1"/>
</g>
</svg>
