<?xml version="1.0" encoding="utf-8"?>
<!-- Generator: Adobe Illustrator 23.0.1, SVG Export Plug-In . SVG Version: 6.00 Build 0)  -->
<svg version="1.1" id="members" xmlns="http://www.w3.org/2000/svg" xmlns:xlink="http://www.w3.org/1999/xlink" x="0px" y="0px"
	 viewBox="0 0 75 77" style="enable-background:new 0 0 75 77;" xml:space="preserve">
<style type="text/css">
	.st0{fill:#9ABD4B;}
	.st1{fill:#5D7132;}
</style>
<g>
	<g>
		<g>
			<path class="st0" d="M57.8,68.9H17.2c-0.1,0-0.2,0-0.3-0.1C6.3,61.8,0,50.1,0,37.5C0,16.8,16.8,0,37.5,0C58.2,0,75,16.8,75,37.5
				c0,12.6-6.3,24.3-16.8,31.3C58.1,68.9,57.9,68.9,57.8,68.9z M17.4,67.6h40.3c10.1-6.8,16.1-18,16.1-30.1
				c0-20-16.3-36.2-36.2-36.2c-20,0-36.2,16.3-36.2,36.2C1.3,49.6,7.3,60.9,17.4,67.6z"/>
		</g>
		<g>
			<path class="st0" d="M71.1,73.2H3.9c-0.3,0-0.6-0.3-0.6-0.6c0-0.3,0.3-0.6,0.6-0.6h67.2c0.3,0,0.6,0.3,0.6,0.6
				C71.7,73,71.4,73.2,71.1,73.2z"/>
		</g>
		<g>
			<path class="st0" d="M71.1,77H3.9c-0.3,0-0.6-0.3-0.6-0.6c0-0.3,0.3-0.6,0.6-0.6h67.2c0.3,0,0.6,0.3,0.6,0.6
				C71.7,76.7,71.4,77,71.1,77z"/>
		</g>
	</g>
</g>
<g id="XMLID_515_">
	<path id="XMLID_4325_" class="st1" d="M53.1,40.9c-2.2-1.9-5.5-2.7-9.8-2.4c2.8-1.9,4.6-5.1,4.6-8.8c0-5.8-4.8-10.6-10.6-10.6
		c-5.8,0-10.6,4.8-10.6,10.6c0,3.5,1.7,6.5,4.2,8.5c-3.1-0.3-9.6-0.1-11.6,6.8c0,0.1,0,0.1,0,0.2v12c0,0.4,0.4,0.8,0.8,0.8h34.8
		c0.4,0,0.8-0.4,0.8-0.8V45.8c0,0,0,0,0,0C55.7,45.7,55.5,43,53.1,40.9z M28.2,29.8c0-5,4.1-9.1,9.1-9.1c5,0,9.1,4.1,9.1,9.1
		c0,5-4.1,9.1-9,9.1h-0.1C32.3,38.8,28.2,34.7,28.2,29.8z M37.2,42.1h0.8l1.2,2.4l-1.6,3.1l-1.2-2.3L37.2,42.1z M36.2,40.5
		c0-0.3,0.2-0.5,0.5-0.5h1.5c0.3,0,0.5,0.2,0.5,0.5c0,0.3-0.2,0.5-0.5,0.5h-1.5C36.4,41,36.2,40.8,36.2,40.5z M39,41.9
		c0.5-0.3,0.9-0.8,0.9-1.4c0-0.1,0-0.3-0.1-0.4c0.6-0.2,1.3-0.4,1.8-0.6l-2,3.8L39,41.9z M36.1,41.9l-0.5,1.8l-2.1-4.1
		c0.5,0.2,1.1,0.4,1.6,0.5c0,0.1,0,0.2,0,0.3C35.1,41.1,35.5,41.7,36.1,41.9z M54.1,56.5H20.9V45.4c2-6.7,9.3-5.7,11-5.4l4.9,9.7
		c0.1,0.3,0.4,0.4,0.7,0.4h0c0.3,0,0.6-0.2,0.7-0.4l4.9-9.5c4-0.3,7,0.4,8.9,2c1.9,1.6,2.1,3.5,2.1,3.7V56.5z"/>
</g>
</svg>
