<?xml version="1.0" encoding="utf-8"?>
<!-- Generator: Adobe Illustrator 23.0.1, SVG Export Plug-In . SVG Version: 6.00 Build 0)  -->
<svg version="1.1" id="Layer_1" xmlns="http://www.w3.org/2000/svg" xmlns:xlink="http://www.w3.org/1999/xlink" x="0px" y="0px"
	 viewBox="0 0 158.21 139.14" style="enable-background:new 0 0 158.21 139.14;" xml:space="preserve">
<style type="text/css">
	.st0{fill:#FFFFFF;stroke:#9ABD4B;stroke-width:4.4111;stroke-miterlimit:10;}
	.st1{fill:#5D7132;}
	.st2{fill:#FFFFFF;stroke:#FFFFFF;stroke-width:6;stroke-linejoin:round;stroke-miterlimit:10;}
	.st3{fill:#676565;}
	.st4{fill:#D8AE58;}
	.st5{fill:#FFFFFF;}
	.st6{fill:#FFFFFF;stroke:#FFFFFF;stroke-width:6;stroke-miterlimit:10;}
	.st7{fill:none;}
	.st8{fill:#666666;}
	.st9{fill:none;stroke:#666666;stroke-width:2;stroke-linecap:round;stroke-linejoin:round;stroke-miterlimit:10;}
	.st10{fill:none;stroke:#666666;stroke-width:2;stroke-miterlimit:10;}
	.st11{fill:none;stroke:#666666;stroke-width:2.1;stroke-miterlimit:10;}
	.st12{fill:none;stroke:#D32027;stroke-width:2;stroke-linejoin:round;stroke-miterlimit:10;}
	.st13{fill:none;stroke:#D32027;stroke-linejoin:round;stroke-miterlimit:10;}
	.st14{fill:none;stroke:#D32027;stroke-width:2;stroke-linecap:round;stroke-linejoin:round;stroke-miterlimit:10;}
	.st15{fill:none;stroke:#D32027;stroke-miterlimit:10;}
</style>
<g id="thames_x5F_river_x5F_anglers_x5F_association">
	<circle id="XMLID_23_" class="st0" cx="81.64" cy="61.39" r="59.18"/>
	<g id="XMLID_222_">
		<path id="XMLID_225_" class="st1" d="M62.92,49.89h1.73L58.1,36.19l-6.55,13.71h1.73l-1.73,3.62h1.73l-1.73,3.62h5.73v3.14
			c0,0.45,0.36,0.82,0.82,0.82l0,0c0.45,0,0.82-0.36,0.82-0.82v-3.14h5.73l-1.73-3.62h1.73L62.92,49.89z"/>
		<path id="XMLID_224_" class="st1" d="M58.92,57.14h5.73l-1.73-3.62h1.73l-1.73-3.62h1.73L58.1,36.2V61.1l0,0
			c0.45,0,0.82-0.36,0.82-0.82C58.92,60.28,58.92,57.14,58.92,57.14z"/>
	</g>
	<path id="XMLID_43_" class="st2" d="M123.16,74.86c0,0-7.97-0.92-11,5.89c0,0-1.15,4.76-4.22,6.17c0,0,9.71-2.68,12.89-4.91
		c0,0,3.55-4.05,4.91-5.05"/>
	<g id="XMLID_217_">
		<path id="XMLID_220_" class="st1" d="M129.7,46.62h2.55l-9.67-20.23l-9.67,20.23h2.55l-2.55,5.35h2.55l-2.55,5.35h8.46v4.63
			c0,0.67,0.54,1.21,1.21,1.21l0,0c0.67,0,1.21-0.54,1.21-1.21v-4.63h8.46l-2.55-5.35h2.55L129.7,46.62z"/>
		<path id="XMLID_219_" class="st1" d="M123.79,57.32h8.46l-2.55-5.35h2.55l-2.55-5.35h2.55l-9.67-20.23v36.76l0,0
			c0.67,0,1.21-0.54,1.21-1.21V57.32z"/>
	</g>
	<g id="XMLID_212_">
		<path id="XMLID_216_" class="st1" d="M108.75,48.14h1.49l-5.65-11.82l-5.65,11.82h1.49l-1.49,3.13h1.49l-1.49,3.13h4.94v2.71
			c0,0.39,0.32,0.7,0.7,0.7l0,0c0.39,0,0.7-0.32,0.7-0.7v-2.71h4.94l-1.49-3.13h1.49L108.75,48.14z"/>
		<path id="XMLID_215_" class="st1" d="M105.3,54.39h4.94l-1.49-3.13h1.49l-1.49-3.13h1.49l-5.65-11.82v21.47l0,0
			c0.39,0,0.7-0.32,0.7-0.7V54.39z"/>
	</g>
	<g id="XMLID_209_">
		<path id="XMLID_211_" class="st1" d="M45.05,47.31h2.19l-8.28-16.72l-8.28,16.72h2.19l-2.19,4.42h2.19l-2.19,4.42h7.24v3.83
			c0,0.55,0.46,1,1.04,1l0,0c0.57,0,1.04-0.45,1.04-1v-3.83h7.24l-2.19-4.42h2.19L45.05,47.31z"/>
		<path id="XMLID_210_" class="st1" d="M40,56.15h7.24l-2.19-4.42h2.19l-2.19-4.42h2.19l-8.28-16.72v30.39l0,0
			c0.57,0,1.04-0.45,1.04-1V56.15z"/>
	</g>
	<path id="XMLID_206_" class="st3" d="M55.04,62.83"/>
	<g id="XMLID_134_">
		<path id="XMLID_135_" class="st3" d="M21.96,93.09l-0.71-1.46l-9.07,4.42l-0.69-1.42l9.07-4.42l-0.7-1.45l1.49-0.73l2.1,4.32
			L21.96,93.09z"/>
		<path id="XMLID_149_" class="st3" d="M26.25,97.12l-10.1,6.01l-0.8-1.35l4.75-2.82l-0.85-1.43l-4.75,2.82l-0.8-1.35l10.1-6.01
			l0.8,1.35l-3.92,2.34l0.85,1.43l3.92-2.34L26.25,97.12z"/>
		<path id="XMLID_153_" class="st3" d="M21.26,105.67l-0.89-1.24l-2.4,1.35l-0.87-1.21l10.6-5.38l0.92,1.28l-8.48,8.33l-0.92-1.28
			L21.26,105.67z M22.49,104.48l3.14-2.85l-0.02-0.03l-3.71,2.06L22.49,104.48z"/>
		<path id="XMLID_156_" class="st3" d="M34.22,107.21l-8.83,7.75l-1.04-1.18l5.44-4.77l-6.12,3.99l-0.71-0.81l4.77-5.53l-0.02-0.02
			l-5.44,4.77l-1.04-1.18l8.83-7.75l1.4,1.6l-4.63,5.39l0.02,0.02l5.96-3.87L34.22,107.21z"/>
		<path id="XMLID_180_" class="st3" d="M34.91,110.17l-1.99,2.09l1.16,1.11l-1.16,1.21l-1.16-1.11l-2.64,2.77l1.74,1.66l-1.16,1.21
			l-2.88-2.75l8.11-8.51l2.75,2.62l-1.16,1.21L34.91,110.17z"/>
		<path id="XMLID_182_" class="st3" d="M38.51,115.46l0.31-0.38c0.52-0.63,0.55-1.19,0.26-1.43c-0.31-0.26-0.79-0.15-1.13,0.27
			c-0.32,0.39-0.5,0.73-0.57,1.4l-0.3,2.85c-0.12,1.14-0.22,1.88-1.1,2.96c-1.08,1.32-2.5,1.37-3.47,0.57
			c-0.98-0.8-1.17-2.19-0.11-3.49l0.77-0.95l1.23,1.01l-0.69,0.84c-0.46,0.56-0.45,1.02-0.13,1.28c0.3,0.25,0.79,0.15,1.23-0.39
			c0.39-0.48,0.54-0.97,0.61-1.56l0.12-2.22c0.19-1.54,0.15-2.05,1.17-3.3c1.01-1.24,2.4-1.42,3.44-0.57
			c1.04,0.84,1.1,2.26,0.11,3.47l-0.52,0.63L38.51,115.46z"/>
		<path id="XMLID_199_" class="st3" d="M41.15,127.64l1.27-4.8c-0.18-0.12-0.37-0.24-0.43-0.27l-2.54,4l-1.32-0.84l6.3-9.92
			l2.22,1.41c1.28,0.81,1.09,2.44,0.09,4.03c-0.94,1.48-2.02,2.12-2.92,2.14l-1.28,5.13L41.15,127.64z M42.95,121.07l0.43,0.27
			c0.86,0.55,1.18,0.55,2.1-0.89c0.5-0.8,0.76-1.51,0.24-1.84l-0.86-0.55L42.95,121.07z"/>
		<path id="XMLID_203_" class="st3" d="M45.16,129.93l-1.38-0.76l5.64-10.3l1.38,0.76L45.16,129.93z"/>
		<path id="XMLID_218_" class="st3" d="M49.83,132.22l-1.52-0.7l3.16-11.49l1.53,0.7l-2.63,8.36l0.02,0.01l4.69-7.42l1.52,0.7
			L49.83,132.22z"/>
		<path id="XMLID_227_" class="st3" d="M58.18,124.76l-0.99,2.72l1.5,0.55l-0.57,1.58l-1.5-0.55l-1.32,3.6l2.26,0.83l-0.57,1.58
			l-3.74-1.36l4.03-11.04l3.57,1.3l-0.57,1.58L58.18,124.76z"/>
		<path id="XMLID_229_" class="st3" d="M62.03,136.52l-0.19-4.96c-0.21-0.05-0.43-0.12-0.49-0.13l-1.26,4.56l-1.51-0.42l3.13-11.32
			l2.54,0.7c1.45,0.4,1.76,2.02,1.25,3.83c-0.46,1.69-1.31,2.61-2.17,2.9l0.26,5.28L62.03,136.52z M61.84,129.71l0.49,0.13
			c0.98,0.27,1.29,0.19,1.75-1.47c0.25-0.91,0.29-1.66-0.3-1.83l-0.98-0.27L61.84,129.71z"/>
		<path id="XMLID_232_" class="st3" d="M71.24,135.56l-1.51-0.22l-0.7,2.66l-1.47-0.22l3.52-11.36l1.55,0.23l0.07,11.89l-1.55-0.23
			L71.24,135.56z M71.24,133.85l0.15-4.24l-0.04-0.01l-1.11,4.09L71.24,133.85z"/>
		<path id="XMLID_235_" class="st3" d="M79.87,127.3l-0.81,11.73l-1.57-0.11l-1.08-6.82h-0.02l-0.46,6.71l-1.57-0.11l0.81-11.73
			l1.66,0.12l1.01,6.6h0.02l0.45-6.5L79.87,127.3z"/>
		<path id="XMLID_237_" class="st3" d="M83.97,130.64l-0.02-0.92c-0.01-0.36-0.29-0.95-0.73-0.94c-0.56,0.02-0.78,0.62-0.77,0.97
			l0.15,6.78c0.01,0.36,0.26,0.95,0.81,0.94c0.59-0.02,0.88-0.57,0.86-1.53l-0.04-1.79l-0.88,0.02l-0.04-1.68l2.29-0.05l0.08,3.63
			c0.03,1.59-0.65,3.06-2.24,3.09c-1.75,0.04-2.41-1.39-2.44-2.57l-0.15-6.8c-0.02-1.19,0.57-2.65,2.32-2.68
			c1.59-0.03,2.34,1.39,2.36,2.58l0.02,0.92L83.97,130.64z"/>
		<path id="XMLID_239_" class="st3" d="M91.07,136.78l0.16,1.67l-3.62,0.36l-1.14-11.7l1.57-0.15l0.98,10.03L91.07,136.78z"/>
		<path id="XMLID_241_" class="st3" d="M92.67,128.05l0.48,2.85l1.58-0.26l0.28,1.66l-1.58,0.26l0.63,3.77l2.37-0.4l0.28,1.66
			l-3.92,0.67l-1.96-11.59l3.75-0.63l0.28,1.66L92.67,128.05z"/>
		<path id="XMLID_243_" class="st3" d="M101.84,136.36l-2.61-4.22c-0.21,0.05-0.43,0.11-0.49,0.12l1.16,4.59l-1.52,0.39l-2.88-11.39
			l2.55-0.64c1.46-0.37,2.52,0.88,2.99,2.71c0.43,1.69,0.15,2.92-0.46,3.6l2.84,4.46L101.84,136.36z M98.3,130.54l0.49-0.12
			c0.99-0.25,1.21-0.48,0.8-2.14c-0.23-0.91-0.57-1.59-1.17-1.43l-0.99,0.25L98.3,130.54z"/>
		<path id="XMLID_246_" class="st3" d="M104.81,126.57l-0.15-0.46c-0.27-0.78-0.73-1.1-1.08-0.97c-0.38,0.13-0.54,0.6-0.36,1.11
			c0.16,0.48,0.36,0.82,0.89,1.22l2.27,1.76c0.91,0.7,1.49,1.18,1.94,2.49c0.56,1.6-0.15,2.84-1.34,3.25
			c-1.2,0.42-2.48-0.15-3.02-1.74l-0.4-1.16l1.5-0.52l0.36,1.03c0.23,0.68,0.63,0.92,1.01,0.79c0.37-0.13,0.54-0.6,0.32-1.25
			c-0.2-0.59-0.53-0.97-1.01-1.34l-1.83-1.27c-1.21-0.97-1.66-1.2-2.19-2.72c-0.52-1.51,0.05-2.78,1.32-3.23
			c1.26-0.43,2.5,0.26,3.01,1.73l0.27,0.77L104.81,126.57z"/>
		<path id="XMLID_248_" class="st3" d="M114.89,128.49l-1.37,0.67l0.92,2.59l-1.34,0.65l-3.5-11.36l1.42-0.69l6.76,9.79l-1.42,0.69
			L114.89,128.49z M113.93,127.08l-2.27-3.58l-0.03,0.02l1.4,4.01L113.93,127.08z"/>
		<path id="XMLID_251_" class="st3" d="M117.3,120.64l-0.25-0.42c-0.42-0.71-0.93-0.94-1.25-0.74c-0.35,0.21-0.41,0.69-0.14,1.15
			c0.26,0.43,0.52,0.73,1.11,1.02l2.58,1.27c1.03,0.5,1.69,0.86,2.4,2.06c0.86,1.46,0.42,2.82-0.67,3.45
			c-1.09,0.65-2.46,0.34-3.31-1.11l-0.63-1.05l1.37-0.8l0.56,0.94c0.36,0.62,0.8,0.77,1.15,0.56c0.33-0.2,0.41-0.69,0.06-1.28
			c-0.32-0.53-0.72-0.84-1.25-1.11l-2.04-0.88c-1.38-0.7-1.87-0.84-2.69-2.24c-0.81-1.37-0.51-2.74,0.65-3.43
			c1.14-0.68,2.5-0.25,3.3,1.1l0.42,0.71L117.3,120.64z"/>
		<path id="XMLID_253_" class="st3" d="M121.91,117.6l-0.28-0.39c-0.47-0.67-1.01-0.85-1.32-0.63c-0.33,0.23-0.36,0.72-0.05,1.16
			c0.29,0.41,0.57,0.68,1.19,0.93l2.67,1.06c1.07,0.42,1.76,0.72,2.55,1.86c0.97,1.38,0.64,2.77-0.39,3.5
			c-1.04,0.73-2.43,0.53-3.39-0.84l-0.7-1.01l1.3-0.91l0.63,0.89c0.42,0.59,0.87,0.7,1.19,0.47c0.32-0.22,0.36-0.72-0.04-1.28
			c-0.36-0.51-0.78-0.78-1.34-1.01l-2.1-0.72c-1.43-0.6-1.93-0.69-2.86-2.01c-0.92-1.31-0.73-2.69,0.38-3.47
			c1.09-0.77,2.48-0.45,3.37,0.83l0.47,0.67L121.91,117.6z"/>
		<path id="XMLID_255_" class="st3" d="M127.12,112.43l4.34,5.21c0.77,0.93,1.15,2.49-0.05,3.5c-1.33,1.11-2.73,0.39-3.5-0.53
			l-4.34-5.21c-0.77-0.93-1.2-2.41,0.13-3.52C124.9,110.87,126.34,111.5,127.12,112.43z M125.92,113.44
			c-0.22-0.27-0.83-0.6-1.18-0.31c-0.43,0.36-0.19,0.99,0.02,1.24l4.33,5.2c0.25,0.29,0.82,0.63,1.25,0.28
			c0.35-0.29,0.12-0.95-0.1-1.22L125.92,113.44z"/>
		<path id="XMLID_259_" class="st3" d="M130.79,110.19l-0.65-0.66c-0.25-0.25-0.86-0.5-1.18-0.18c-0.39,0.39-0.14,0.99,0.11,1.24
			l4.76,4.83c0.25,0.25,0.84,0.51,1.24,0.12c0.32-0.32,0.09-0.94-0.16-1.18l-0.65-0.66l1.13-1.11l0.65,0.66
			c0.84,0.85,1.34,2.38,0.21,3.5c-1.24,1.21-2.72,0.65-3.54-0.19l-4.77-4.84c-0.84-0.85-1.38-2.34-0.15-3.56
			c1.13-1.11,2.65-0.59,3.49,0.26l0.65,0.66L130.79,110.19z"/>
		<path id="XMLID_261_" class="st3" d="M139.94,112.61l-1.05,1.18l-8.75-7.84l1.05-1.18L139.94,112.61z"/>
		<path id="XMLID_263_" class="st3" d="M140.9,107.14l-0.94,1.2l1.96,1.93l-0.92,1.17l-8.11-8.69l0.97-1.24l10.35,5.85l-0.97,1.24
			L140.9,107.14z M139.41,106.29l-3.6-2.24l-0.02,0.03l3,2.99L139.41,106.29z"/>
		<path id="XMLID_266_" class="st3" d="M138.68,97.59l-0.92,1.34l8.32,5.71l-0.89,1.3l-8.32-5.71l-0.91,1.33l-1.37-0.94l2.72-3.97
			L138.68,97.59z"/>
		<path id="XMLID_268_" class="st3" d="M148.6,100.62l-0.81,1.35l-10.08-6.05l0.81-1.35L148.6,100.62z"/>
		<path id="XMLID_270_" class="st3" d="M143.39,90.71l6.03,3.11c1.08,0.56,2.03,1.84,1.31,3.24c-0.8,1.54-2.37,1.43-3.43,0.87
			l-6.03-3.11c-1.08-0.56-2.04-1.75-1.25-3.3C140.75,90.14,142.32,90.16,143.39,90.71z M142.69,92.12c-0.31-0.16-1-0.23-1.21,0.17
			c-0.26,0.5,0.21,0.98,0.5,1.13l6.01,3.1c0.34,0.18,1,0.26,1.25-0.23c0.21-0.4-0.26-0.93-0.57-1.09L142.69,92.12z"/>
		<path id="XMLID_273_" class="st3" d="M143.4,84.36l10.87,4.48l-0.6,1.45l-6.81-1.14l-0.01,0.02l6.23,2.57l-0.6,1.45l-10.87-4.48
			l0.63-1.54l6.58,1.14l0.01-0.02l-6.03-2.48L143.4,84.36z"/>
	</g>
	<g id="XMLID_56_">
		<g>
			<path id="XMLID_505_" class="st3" d="M58.83,104.1h-1.18l-0.23,1.59h-1.15l1.4-6.82h1.22l1.4,6.82h-1.22L58.83,104.1z
				 M58.63,103.11l-0.37-2.44h-0.03l-0.38,2.44H58.63z"/>
			<path id="XMLID_503_" class="st3" d="M65.28,98.86v6.82h-1.22l-1.2-3.91h-0.02v3.91h-1.22v-6.82h1.28l1.13,3.78h0.02v-3.78
				C64.05,98.86,65.28,98.86,65.28,98.86z"/>
			<path id="XMLID_501_" class="st3" d="M69.11,100.84v-0.53c0-0.2-0.2-0.56-0.56-0.56c-0.43,0-0.61,0.35-0.61,0.56v3.94
				c0,0.2,0.19,0.56,0.61,0.56c0.46,0,0.7-0.32,0.7-0.87v-1.04h-0.68v-0.97h1.77v2.1c0,0.93-0.56,1.76-1.79,1.76
				c-1.35,0-1.84-0.84-1.84-1.52v-3.95c0-0.7,0.49-1.53,1.84-1.53c1.23,0,1.79,0.84,1.79,1.53v0.53L69.11,100.84L69.11,100.84z"/>
			<path id="XMLID_499_" class="st3" d="M74.57,104.71v0.97h-2.82v-6.82h1.22v5.85H74.57z"/>
			<path id="XMLID_497_" class="st3" d="M77.11,99.83v1.68h1.24v0.97h-1.24v2.22h1.86v0.97H75.9v-6.82h2.95v0.97L77.11,99.83
				L77.11,99.83z"/>
			<path id="XMLID_494_" class="st3" d="M83.06,105.68l-1.16-2.75c-0.16,0-0.34,0-0.39,0v2.75h-1.21v-6.82h2.03
				c1.17,0,1.73,0.86,1.73,1.95c0,1.01-0.44,1.67-1.02,1.96l1.28,2.92H83.06z M81.51,101.9h0.39c0.79,0,1.01-0.1,1.01-1.09
				c0-0.55-0.12-0.97-0.6-0.97h-0.79C81.51,99.83,81.51,101.9,81.51,101.9z"/>
			<path id="XMLID_492_" class="st3" d="M87.73,100.77v-0.29c0-0.48-0.26-0.74-0.55-0.74c-0.31,0-0.55,0.22-0.55,0.53
				c0,0.29,0.06,0.52,0.34,0.84l1.22,1.39c0.49,0.56,0.79,0.93,0.79,1.73c0,0.98-0.83,1.53-1.8,1.53c-0.98,0-1.77-0.56-1.77-1.53
				v-0.71h1.23v0.63c0,0.42,0.23,0.63,0.55,0.63c0.3,0,0.55-0.22,0.55-0.63c0-0.36-0.15-0.63-0.4-0.93l-1.01-1.04
				c-0.64-0.76-0.92-0.97-0.92-1.91c0-0.93,0.74-1.52,1.79-1.52c1.04,0,1.76,0.61,1.76,1.52v0.48h-1.22V100.77z"/>
			<path id="XMLID_490_" class="st3" d="M90.36,104.47h1.22v1.22h-1.22V104.47z"/>
			<path id="XMLID_487_" class="st3" d="M96.58,100.29v3.94c0,0.7-0.55,1.54-1.76,1.54c-1.35,0-1.83-0.84-1.83-1.54v-3.94
				c0-0.7,0.48-1.52,1.83-1.52C96.03,98.77,96.58,99.59,96.58,100.29z M95.36,100.31c0-0.2-0.19-0.57-0.55-0.57
				c-0.43,0-0.6,0.37-0.6,0.56v3.93c0,0.22,0.18,0.59,0.6,0.59c0.35,0,0.55-0.38,0.55-0.59V100.31z"/>
			<path id="XMLID_484_" class="st3" d="M100.77,105.68l-1.16-2.75c-0.16,0-0.34,0-0.39,0v2.75h-1.21v-6.82h2.03
				c1.17,0,1.72,0.86,1.72,1.95c0,1.01-0.44,1.67-1.02,1.96l1.28,2.92H100.77z M99.22,101.9h0.39c0.79,0,1.01-0.1,1.01-1.09
				c0-0.55-0.12-0.97-0.6-0.97h-0.79C99.22,99.83,99.22,101.9,99.22,101.9z"/>
			<path id="XMLID_482_" class="st3" d="M105.55,100.84v-0.53c0-0.2-0.2-0.56-0.56-0.56c-0.43,0-0.61,0.35-0.61,0.56v3.94
				c0,0.2,0.19,0.56,0.61,0.56c0.46,0,0.7-0.32,0.7-0.87v-1.04h-0.68v-0.97h1.77v2.1c0,0.93-0.56,1.76-1.79,1.76
				c-1.35,0-1.84-0.84-1.84-1.52v-3.95c0-0.7,0.49-1.53,1.84-1.53c1.23,0,1.79,0.84,1.79,1.53v0.53L105.55,100.84L105.55,100.84z"/>
		</g>
	</g>
	<g id="XMLID_1_">
		<g>
			<path id="XMLID_437_" class="st3" d="M63.12,24.68v1.86h1.38v1.08h-1.38v2.47h2.07v1.08h-3.43v-7.59h3.27v1.08L63.12,24.68
				L63.12,24.68z"/>
			<path id="XMLID_435_" class="st3" d="M69.17,25.73v-0.32c0-0.53-0.28-0.82-0.6-0.82c-0.35,0-0.6,0.25-0.6,0.6
				c0,0.32,0.06,0.57,0.38,0.93l1.35,1.55c0.54,0.62,0.87,1.03,0.87,1.93c0,1.1-0.92,1.7-2,1.7c-1.1,0-1.97-0.62-1.97-1.7V28.8h1.36
				v0.7c0,0.46,0.26,0.7,0.6,0.7c0.33,0,0.6-0.25,0.6-0.7c0-0.4-0.16-0.7-0.44-1.03l-1.13-1.16c-0.71-0.84-1.02-1.08-1.02-2.13
				c0-1.03,0.82-1.69,1.98-1.69c1.14,0,1.96,0.68,1.96,1.69v0.53L69.17,25.73L69.17,25.73z"/>
			<path id="XMLID_433_" class="st3" d="M76.06,24.68h-1.4v6.51h-1.35v-6.51h-1.39V23.6h4.14V24.68z"/>
			<path id="XMLID_431_" class="st3" d="M76.86,29.84h1.35v1.35h-1.35V29.84z"/>
			<path id="XMLID_429_" class="st3" d="M82.85,23.6h1.35v7.59h-1.35v-6.5h-0.6v-0.78L82.85,23.6z"/>
			<path id="XMLID_426_" class="st3" d="M85.76,26.56c0-0.11,0.01-0.97,0.01-1.06c0-1.19,0.73-2,2.14-2c1.37,0,1.98,0.94,1.98,1.7
				c0,0,0,3.63,0,3.81c0,1.22-0.81,2.27-2.06,2.27c-1.29,0-1.89-0.93-1.89-1.7v-0.6h1.3v0.6c0,0.32,0.22,0.62,0.59,0.62
				c0.52,0,0.7-0.57,0.7-1.18v-1.2c-0.19,0.22-0.46,0.43-0.92,0.43C86.36,28.24,85.76,27.46,85.76,26.56z M87.15,26.56
				c0,0.38,0.32,0.6,0.67,0.6c0.43,0,0.71-0.21,0.71-0.4v-1.55c0-0.22-0.22-0.63-0.62-0.63c-0.54,0-0.76,0.29-0.76,0.91
				C87.16,25.59,87.15,26.46,87.15,26.56z"/>
			<path id="XMLID_422_" class="st3" d="M95.83,29.02c0,1.22-0.86,2.27-2.16,2.27c-1.35,0-2.22-0.98-2.22-2.27
				c0-1.05,0.55-1.62,1.25-1.93c-0.49-0.21-1-0.91-1-1.68c0-1.18,0.7-1.91,1.9-1.91c1.24,0,1.97,0.68,1.97,1.91
				c0,0.77-0.5,1.48-1,1.68C95.26,27.4,95.83,27.97,95.83,29.02z M94.44,29.02c0-0.7-0.19-1.24-0.8-1.35
				c-0.63,0.12-0.81,0.65-0.81,1.35c0,0.75,0.27,1.18,0.92,1.18C94.23,30.2,94.44,29.57,94.44,29.02z M92.97,25.51
				c0,0.41,0.17,0.8,0.66,0.97c0.48-0.16,0.65-0.55,0.65-0.97c0-0.54-0.22-0.92-0.63-0.92S92.97,24.98,92.97,25.51z"/>
			<path id="XMLID_419_" class="st3" d="M101.5,28.23c0,0.11-0.01,0.97-0.01,1.06c0,1.19-0.73,2-2.13,2c-1.36,0-1.98-0.93-1.98-1.7
				c0,0,0-3.63,0-3.81c0-1.22,0.8-2.27,2.03-2.27c1.31,0,1.9,0.94,1.9,1.7v0.52h-1.31v-0.51c0-0.32-0.21-0.63-0.59-0.63
				c-0.52,0-0.67,0.59-0.67,1.19v1.19c0.16-0.22,0.44-0.43,0.92-0.43C100.89,26.55,101.5,27.35,101.5,28.23z M100.11,28.23
				c0-0.38-0.32-0.6-0.68-0.6c-0.43,0-0.7,0.19-0.7,0.39v1.56c0,0.22,0.22,0.62,0.62,0.62c0.52,0,0.75-0.29,0.75-0.91
				C100.1,29.2,100.11,28.34,100.11,28.23z"/>
		</g>
	</g>
	<g id="XMLID_194_">
		<circle id="XMLID_197_" class="st4" cx="81.71" cy="11.42" r="3.02"/>
		
			<ellipse id="XMLID_195_" transform="matrix(0.7714 -0.6364 0.6364 0.7714 12.2083 53.3525)" class="st5" cx="80.36" cy="9.69" rx="0.59" ry="0.36"/>
	</g>
	<g id="XMLID_191_">
		<circle id="XMLID_193_" class="st4" cx="64.57" cy="15.43" r="3.02"/>
		
			<ellipse id="XMLID_192_" transform="matrix(0.7714 -0.6364 0.6364 0.7714 5.7353 43.3612)" class="st5" cx="63.22" cy="13.7" rx="0.59" ry="0.36"/>
	</g>
	<g id="XMLID_188_">
		<circle id="XMLID_190_" class="st4" cx="98.26" cy="15.43" r="3.02"/>
		
			<ellipse id="XMLID_189_" transform="matrix(0.7714 -0.6364 0.6364 0.7714 13.438 64.8061)" class="st5" cx="96.91" cy="13.7" rx="0.59" ry="0.36"/>
	</g>
	<ellipse id="XMLID_187_" class="st5" cx="64.57" cy="16.43" rx="1.53" ry="0.8"/>
	<ellipse id="XMLID_186_" class="st5" cx="81.71" cy="12.46" rx="1.53" ry="0.8"/>
	<ellipse id="XMLID_185_" class="st5" cx="98.26" cy="16.43" rx="1.53" ry="0.8"/>
	<path id="XMLID_40_" class="st6" d="M91.1,54.65c0,0-2.2-1.16-3.29-1.2c0,0-8.63-8.16-10.62-9.27c0,0-5.21,8.52-7.5,9.2
		c0,0-0.63,0.75,2.07,0.97c0,0,2.55,0,2.82,0.3c0,0,0.9,0.34,0.83,0.83"/>
	<path id="XMLID_37_" class="st6" d="M54.29,56.59c0,0-3.85-2.39-9.92-2.71c0,0-1.8,0.39-3.23,3.35c0,0,0,0.52,0.91,1.03"/>
	<path id="XMLID_11_" class="st6" d="M38.6,70.63c-1.15-0.19-10.2,3.65-10.2,3.65C10.12,85.73,3,84.04,3,84.04
		c0-3.87,6.92-14.84,6.92-14.84c3.63-4.46,1.49-7.43,1.49-7.43C3.32,45.11,4.32,45.01,4.32,45.01c4.46-0.11,21.61,7.85,21.61,7.85
		c2.97,1.65,8.08,3.63,8.08,3.63l3.95,1.52c1.13,0.65,10.21,0.39,10.21,0.39c18.26-5.24,72.78-4.89,72.78-4.89l6.01,0.44
		c0,0,23.55,2.85,27.13,9.23c0,0-5.6,2.92-8.89,6.02c0,0,4.73-0.5,5.79-0.8l4.09-0.32c0,0,0.32,0.33-5.93,4.86
		c0,0-4.25,2.13-9.67,3.67l-5.67,1.2c-4.66,1.16-9.04,3.38-12.97,4.19c0,0-11.39,2.34-30.18,1.02s-12.86-2.11-27.62-5.69
		C48.27,73.77,47.88,72.11,38.6,70.63z"/>
	<path id="XMLID_12_" class="st6" d="M90.65,78.18c0,0-2.8,11.79-7.94,13.42c0,0-2.32-2.32-3.95-6.49
		c-0.56-1.44-1.04-3.09-1.31-4.95c0,0,0.23-1.86,1.75-1.99c0,0,2.45,0.82,3.62,0"/>
	<path id="XMLID_5_" class="st6" d="M59.86,75.58c0,0-3.12,4.85-7.58,7.81c0,0-2.18,2.31-3.14,2.1c-0.58-0.13-0.22-1.66-0.09-3.77
		c0,0-1.27-4.05-4.19-6.69c0,0-1.42-1.13,0-1.79c0,0,0.29,0.09,3.87-0.76"/>
	<polygon id="XMLID_403_" class="st7" points="74.86,100.76 80.8,100.76 80.8,100.76 	"/>
	<g id="XMLID_294_">
		<path id="XMLID_315_" class="st7" d="M30.69,74.01"/>
	</g>
	<g id="XMLID_114_">
		<path id="XMLID_312_" class="st7" d="M30.69,54.35"/>
	</g>
	<g id="XMLID_173_">
		<polygon id="XMLID_176_" class="st8" points="6.88,50.45 23.44,56.79 6.39,51.92 		"/>
	</g>
	<g id="XMLID_170_">
		<polygon id="XMLID_316_" class="st8" points="10.18,58.26 19.05,60.06 10,59.8 		"/>
	</g>
	<g id="XMLID_167_">
		<polygon id="XMLID_174_" class="st8" points="11.08,66.43 19.05,65.45 11.41,67.94 		"/>
	</g>
	<g id="XMLID_164_">
		<polygon id="XMLID_171_" class="st8" points="8.6,70.8 21.89,68.62 8.94,72.31 		"/>
	</g>
	<g id="XMLID_161_">
		<polygon id="XMLID_168_" class="st8" points="5.52,75.68 22.66,70.73 6.02,77.14 		"/>
	</g>
	<g id="XMLID_158_">
		<polygon id="XMLID_165_" class="st8" points="3.19,79.96 22.45,74.01 3.7,81.42 		"/>
	</g>
	<path id="XMLID_157_" class="st8" d="M144.47,61.54c-0.02-0.29-0.18-0.6-0.5-0.64c-0.05-0.01-0.42-0.12-0.52-0.15
		c-0.26-0.07-0.53-0.07-0.8-0.02c-0.16,0.01-0.74,0.23-0.85,0.32c-0.46,0.27-0.46,0.32-0.75,0.79c-0.17,0.28-0.09,0.91,0.22,1.06
		c0.69,0.33,1.11,0.87,1.89,0.66c0.27,0.01,0.5-0.1,0.69-0.29c0.19-0.19,0.3-0.45,0.36-0.72c0.09-0.2,0.12-0.22,0.16-0.45"/>
	<path id="XMLID_22_" class="st9" d="M34.1,71.56c0,0,3.55-4.84,34.75,7.55c0,0-0.59-0.09,8.61,2.55"/>
	<path id="XMLID_9_" class="st10" d="M89.13,82.99c4.29,0.15,12.84,0.45,18.8,0.36c0,0,1.25,0.03,3.28-0.09"/>
	<g id="XMLID_20_">
		<path id="XMLID_27_" class="st8" d="M123.15,74.94c-1.1-0.06-2.2,0.05-3.28,0.26c-0.27,0.05-0.53,0.13-0.8,0.19
			c-0.27,0.06-0.52,0.16-0.78,0.25c-0.26,0.08-0.51,0.19-0.76,0.3c-0.25,0.11-0.5,0.21-0.73,0.35c-0.23,0.14-0.48,0.25-0.7,0.4
			l-0.66,0.46c-0.22,0.16-0.4,0.36-0.6,0.53c-0.21,0.17-0.39,0.36-0.56,0.57c-0.17,0.21-0.36,0.39-0.52,0.61l-0.44,0.67
			c-0.31,0.43-0.49,0.94-0.74,1.41l0.02-0.08c-0.16,0.67-0.36,1.28-0.61,1.9c-0.25,0.62-0.53,1.22-0.87,1.8
			c-0.35,0.58-0.74,1.14-1.21,1.65c-0.26,0.24-0.5,0.5-0.79,0.7c-0.15,0.11-0.28,0.22-0.44,0.31l-0.47,0.27l-0.43-1.16
			c2.19-0.67,4.36-1.45,6.5-2.24c1.07-0.4,2.14-0.79,3.19-1.21c0.53-0.2,1.04-0.42,1.55-0.65c0.5-0.24,0.99-0.48,1.45-0.75
			l-0.12,0.1c0.83-0.86,1.67-1.68,2.54-2.48c0.43-0.4,0.89-0.79,1.35-1.16c0.46-0.37,0.93-0.75,1.45-1.05
			c0.04-0.02,0.09-0.01,0.11,0.03c0.02,0.03,0.01,0.07-0.02,0.09c-0.82,0.83-1.53,1.77-2.27,2.68l-2.2,2.74
			c-0.03,0.04-0.06,0.07-0.1,0.09l-0.02,0.02c-0.26,0.18-0.5,0.36-0.77,0.53l-0.78,0.46c-0.53,0.28-1.06,0.55-1.59,0.79
			c-0.54,0.24-1.08,0.47-1.62,0.68c-0.54,0.21-1.09,0.42-1.65,0.6c-1.11,0.37-2.21,0.72-3.33,1.03s-2.24,0.63-3.36,0.91
			c-0.33,0.09-0.67-0.12-0.76-0.45c-0.07-0.29,0.07-0.57,0.32-0.7l0.02-0.01l0.37-0.19c0.13-0.05,0.24-0.15,0.36-0.22
			c0.24-0.15,0.45-0.36,0.67-0.55c0.42-0.41,0.79-0.89,1.13-1.4c0.33-0.51,0.62-1.06,0.87-1.62c0.25-0.56,0.48-1.16,0.64-1.73
			l0.02-0.05l0.02-0.03c0.29-0.5,0.52-1.04,0.87-1.5l0.52-0.7c0.18-0.22,0.39-0.43,0.6-0.63c0.19-0.22,0.4-0.41,0.64-0.58
			c0.23-0.18,0.44-0.37,0.68-0.53l0.73-0.45c0.25-0.15,0.51-0.26,0.77-0.38c0.26-0.13,0.52-0.22,0.79-0.32
			c0.26-0.1,0.53-0.2,0.8-0.26c0.27-0.07,0.54-0.16,0.82-0.21c0.28-0.05,0.55-0.12,0.84-0.15c1.11-0.15,2.24-0.2,3.36-0.07
			c0.04,0.01,0.07,0.05,0.07,0.09C123.23,74.91,123.19,74.94,123.15,74.94z"/>
	</g>
	<g id="XMLID_18_">
		<path id="XMLID_26_" class="st8" d="M91.1,54.65c-0.55-0.21-1.11-0.39-1.66-0.57c-0.28-0.09-0.56-0.15-0.84-0.22
			c-0.27-0.06-0.56-0.11-0.8-0.09l-0.1,0.01l-0.12-0.09c-1.82-1.49-3.61-3.02-5.41-4.53c-0.89-0.77-1.79-1.52-2.69-2.26
			c-0.45-0.37-0.9-0.75-1.35-1.1c-0.22-0.18-0.45-0.36-0.68-0.52c-0.23-0.18-0.44-0.3-0.65-0.43l1.03-0.27
			c-0.53,0.87-1.09,1.7-1.66,2.54c-0.57,0.84-1.14,1.66-1.77,2.45c-0.63,0.8-1.26,1.59-1.96,2.34c-0.36,0.37-0.73,0.73-1.13,1.08
			c-0.21,0.17-0.42,0.34-0.66,0.5c-0.24,0.15-0.5,0.3-0.83,0.39l0.25-0.16c0.05-0.08,0.04-0.07,0.05-0.12
			c0-0.04-0.01-0.09-0.02-0.11c-0.01-0.02-0.03-0.03-0.02-0.02c0,0.01,0.02,0.02,0.04,0.04c0.05,0.03,0.11,0.08,0.19,0.11
			c0.08,0.04,0.16,0.07,0.26,0.1c0.37,0.12,0.78,0.19,1.2,0.26h-0.03c0.49,0.04,0.96,0.08,1.45,0.14c0.24,0.03,0.48,0.06,0.72,0.12
			c0.12,0.02,0.24,0.05,0.36,0.09c0.06,0.02,0.12,0.04,0.19,0.07c0.07,0.03,0.13,0.05,0.22,0.15l-0.07-0.05
			c0.2,0.11,0.38,0.23,0.54,0.39c0.15,0.15,0.29,0.38,0.22,0.6c-0.01-0.22-0.18-0.36-0.34-0.45c-0.17-0.09-0.36-0.17-0.54-0.22
			l-0.07-0.05c0.01,0.01-0.05-0.02-0.09-0.02c-0.05-0.01-0.1-0.02-0.15-0.02c-0.11-0.02-0.22-0.02-0.34-0.02
			c-0.23-0.01-0.46-0.02-0.7-0.02c-0.47,0.01-0.94,0.02-1.41,0.05h-0.03c-0.45-0.02-0.9-0.05-1.37-0.14
			c-0.12-0.02-0.24-0.05-0.36-0.09c-0.12-0.04-0.26-0.09-0.39-0.17c-0.13-0.08-0.3-0.2-0.42-0.44c-0.05-0.12-0.09-0.28-0.06-0.43
			c0.02-0.15,0.05-0.26,0.17-0.42l0.06-0.09l0.19-0.08c0.3-0.12,0.67-0.43,1-0.75c0.33-0.32,0.65-0.69,0.96-1.07
			c0.62-0.75,1.21-1.53,1.77-2.34c0.56-0.81,1.12-1.62,1.67-2.44c0.55-0.82,1.08-1.67,1.6-2.5l0.42-0.66l0.61,0.39
			c0.29,0.18,0.57,0.36,0.8,0.55c0.26,0.19,0.49,0.37,0.72,0.56c0.47,0.38,0.92,0.77,1.37,1.15c0.89,0.79,1.75,1.59,2.61,2.41
			c1.7,1.63,3.36,3.3,4.97,5.04l-0.21-0.09c0.35,0.04,0.63,0.14,0.92,0.25c0.29,0.11,0.56,0.24,0.82,0.37
			C90.1,54.01,90.61,54.33,91.1,54.65z"/>
	</g>
	<g id="XMLID_146_">
		<path id="XMLID_148_" class="st8" d="M86.91,54.69l-9.19-8.25l9.69,7.67c0.17,0.13,0.19,0.38,0.06,0.54
			c-0.13,0.17-0.38,0.19-0.54,0.06C86.91,54.7,86.91,54.69,86.91,54.69z"/>
	</g>
	<g id="XMLID_143_">
		<path id="XMLID_145_" class="st8" d="M83.19,54.64l-6.09-5.93l6.6,5.35c0.16,0.13,0.19,0.38,0.05,0.54
			c-0.13,0.16-0.38,0.19-0.54,0.05C83.2,54.66,83.19,54.65,83.19,54.64z"/>
	</g>
	<g id="XMLID_140_">
		<path id="XMLID_142_" class="st8" d="M79.87,54.37l-3.77-3.61l4.27,3.02c0.18,0.12,0.22,0.36,0.09,0.54
			c-0.12,0.18-0.36,0.22-0.54,0.09C79.9,54.39,79.88,54.38,79.87,54.37z"/>
	</g>
	<g id="XMLID_137_">
		<path id="XMLID_139_" class="st8" d="M77.04,54.81l-3.01-2.85l3.49,2.24c0.18,0.12,0.23,0.36,0.12,0.53s-0.36,0.23-0.53,0.12
			C77.07,54.85,77.05,54.83,77.04,54.81z"/>
	</g>
	<g id="XMLID_16_">
		<path id="XMLID_25_" class="st8" d="M54.29,56.59c-0.84-0.26-1.67-0.49-2.5-0.7c-0.41-0.11-0.83-0.19-1.24-0.29
			s-0.83-0.17-1.24-0.26c-0.41-0.09-0.83-0.16-1.24-0.22c-0.42-0.07-0.83-0.14-1.25-0.19c-0.41-0.07-0.84-0.1-1.25-0.16
			c-0.42-0.05-0.84-0.08-1.25-0.12l0.19-0.02c0.01-0.01-0.09,0.03-0.15,0.05c-0.07,0.02-0.14,0.05-0.22,0.09
			c-0.15,0.06-0.29,0.15-0.43,0.24c-0.29,0.19-0.55,0.42-0.82,0.66c-0.27,0.24-0.5,0.53-0.74,0.82c-0.24,0.29-0.46,0.6-0.67,0.93
			l0.04-0.16c-0.01-0.04-0.02,0-0.02,0c0,0.02-0.01,0.03,0,0.05c0,0.04,0.01,0.09,0.02,0.12c0.02,0.09,0.07,0.19,0.12,0.28
			c0.1,0.19,0.25,0.39,0.42,0.57c-0.25-0.05-0.49-0.13-0.71-0.28c-0.12-0.07-0.22-0.16-0.32-0.27c-0.05-0.05-0.09-0.12-0.14-0.19
			c-0.02-0.04-0.04-0.08-0.05-0.12c-0.02-0.05-0.03-0.07-0.05-0.17l-0.01-0.04l0.04-0.12c0.13-0.39,0.29-0.78,0.48-1.16
			c0.2-0.37,0.42-0.74,0.69-1.09c0.26-0.35,0.57-0.67,0.93-0.96c0.18-0.14,0.36-0.28,0.57-0.39c0.1-0.06,0.21-0.12,0.32-0.17
			c0.12-0.05,0.21-0.09,0.41-0.15l0.08-0.02l0.12,0.01c0.89,0.03,1.78,0.11,2.66,0.26c0.88,0.14,1.74,0.38,2.59,0.64
			c0.84,0.29,1.67,0.63,2.45,1.04C52.88,55.5,53.64,55.97,54.29,56.59z"/>
	</g>
	<path id="XMLID_133_" class="st8" d="M118.87,58.75c-0.03-0.05-0.06-0.1-0.09-0.15c-0.02-0.2-0.12-0.42-0.35-0.45
		c-0.04-0.01-0.29-0.09-0.36-0.1c-0.18-0.05-0.37-0.05-0.56-0.02c-0.12,0.01-0.52,0.16-0.6,0.23c-0.32,0.19-0.45,0.43-0.65,0.75
		c-0.12,0.19-0.15,0.5,0.06,0.6c0.49,0.23,0.99,0.56,1.53,0.41c0.19,0.01,0.36-0.07,0.48-0.2c0.14-0.14,0.21-0.32,0.26-0.5
		c0.07-0.14,0.08-0.15,0.12-0.31C118.79,59.05,118.91,58.82,118.87,58.75z"/>
	<path id="XMLID_132_" class="st8" d="M107.76,58.86c-0.02-0.03-0.04-0.06-0.05-0.09c-0.01-0.12-0.08-0.26-0.21-0.27
		c-0.02,0-0.18-0.05-0.22-0.06c-0.11-0.03-0.22-0.03-0.34-0.01c-0.07,0-0.32,0.1-0.36,0.14c-0.19,0.12-0.27,0.26-0.39,0.46
		c-0.07,0.12-0.09,0.3,0.04,0.36c0.29,0.14,0.6,0.34,0.93,0.25c0.12,0,0.22-0.05,0.29-0.12c0.09-0.09,0.13-0.19,0.15-0.31
		c0.04-0.09,0.05-0.09,0.07-0.19C107.71,59.05,107.78,58.91,107.76,58.86z"/>
	<path id="XMLID_131_" class="st8" d="M50.33,56.28c-0.02-0.03-0.04-0.06-0.05-0.09c-0.01-0.12-0.08-0.26-0.21-0.27
		c-0.02,0-0.18-0.05-0.22-0.06c-0.11-0.03-0.22-0.03-0.34-0.01c-0.07,0-0.32,0.1-0.36,0.14c-0.19,0.12-0.27,0.26-0.39,0.46
		c-0.07,0.12-0.09,0.3,0.04,0.36c0.29,0.14,0.6,0.34,0.93,0.25c0.12,0,0.22-0.05,0.29-0.12c0.09-0.09,0.13-0.19,0.15-0.31
		c0.04-0.09,0.05-0.09,0.07-0.19C50.28,56.47,50.35,56.33,50.33,56.28z"/>
	<path id="XMLID_130_" class="st8" d="M44.25,57.08c-0.01-0.02-0.02-0.04-0.03-0.05c-0.01-0.08-0.05-0.16-0.13-0.18
		c-0.02,0-0.12-0.03-0.14-0.04c-0.07-0.02-0.15-0.02-0.22-0.01c-0.05,0-0.2,0.06-0.23,0.09c-0.12,0.08-0.18,0.16-0.26,0.29
		c-0.05,0.08-0.06,0.19,0.02,0.23c0.19,0.09,0.39,0.22,0.6,0.16c0.07,0,0.14-0.03,0.19-0.08c0.05-0.05,0.09-0.12,0.1-0.19
		c0.02-0.05,0.03-0.06,0.05-0.12C44.21,57.2,44.26,57.11,44.25,57.08z"/>
	<path id="XMLID_129_" class="st8" d="M46.55,55.53c-0.01-0.02-0.02-0.03-0.02-0.04c-0.01-0.06-0.04-0.12-0.1-0.13
		c-0.01,0-0.09-0.02-0.1-0.03c-0.05-0.02-0.11-0.02-0.16-0.01c-0.03,0-0.15,0.05-0.17,0.06c-0.09,0.05-0.13,0.12-0.19,0.22
		c-0.03,0.05-0.05,0.14,0.02,0.17c0.14,0.07,0.28,0.16,0.43,0.12c0.05,0,0.1-0.02,0.14-0.05c0.04-0.04,0.06-0.09,0.07-0.15
		c0.02-0.04,0.02-0.05,0.03-0.09C46.53,55.62,46.56,55.56,46.55,55.53z"/>
	<path id="XMLID_8_" class="st11" d="M120.84,82.02c3.93-0.81,8.32-3.03,12.97-4.19l5.67-1.2c5.41-1.55,9.67-3.67,9.67-3.67
		c6.25-4.53,5.93-4.86,5.93-4.86l-4.09,0.32c-1.07,0.29-5.79,0.8-5.79,0.8c3.29-3.09,8.89-6.02,8.89-6.02
		c-3.57-6.38-27.13-9.23-27.13-9.23l-6.01-0.44c0,0-54.52-0.35-72.78,4.89c0,0-9.08,0.26-10.21-0.39l-3.95-1.52
		c0,0-5.11-1.98-8.08-3.63c0,0-17.15-7.96-21.61-7.85c0,0-1,0.09,7.09,16.76c0,0,2.14,2.97-1.49,7.43c0,0-6.92,10.98-6.92,14.84
		c0,0,7.12,1.69,25.4-9.76c0,0,9.05-3.86,10.2-3.65"/>
	<path id="XMLID_127_" class="st12" d="M149.37,67.46"/>
	<path id="XMLID_126_" class="st8" d="M111.33,63.12c-0.02-0.03-0.04-0.06-0.05-0.09c-0.01-0.12-0.08-0.26-0.21-0.27
		c-0.02,0-0.18-0.05-0.22-0.06c-0.11-0.03-0.22-0.03-0.34-0.01c-0.07,0-0.32,0.1-0.36,0.14c-0.19,0.12-0.27,0.26-0.39,0.46
		c-0.07,0.12-0.09,0.3,0.04,0.36c0.29,0.14,0.6,0.34,0.93,0.25c0.12,0,0.22-0.05,0.29-0.12c0.09-0.09,0.13-0.19,0.15-0.31
		c0.04-0.09,0.05-0.09,0.07-0.19C111.29,63.31,111.36,63.16,111.33,63.12z"/>
	<path id="XMLID_125_" class="st8" d="M85.07,59.89c-0.02-0.03-0.04-0.06-0.05-0.09c-0.01-0.12-0.08-0.26-0.21-0.27
		c-0.02,0-0.18-0.05-0.22-0.06c-0.11-0.03-0.22-0.03-0.34-0.01c-0.07,0-0.32,0.1-0.36,0.14c-0.19,0.12-0.27,0.26-0.39,0.46
		c-0.07,0.12-0.09,0.3,0.04,0.36c0.29,0.14,0.6,0.34,0.93,0.25c0.12,0,0.22-0.05,0.29-0.12c0.09-0.09,0.13-0.19,0.15-0.31
		c0.04-0.09,0.05-0.09,0.07-0.19C85.03,60.07,85.1,59.93,85.07,59.89z"/>
	<path id="XMLID_124_" class="st8" d="M58.09,61.43c-0.03-0.05-0.06-0.1-0.09-0.15c-0.02-0.2-0.12-0.42-0.35-0.45
		c-0.04-0.01-0.29-0.09-0.36-0.1c-0.18-0.05-0.37-0.05-0.56-0.02c-0.12,0.01-0.52,0.16-0.6,0.23c-0.32,0.19-0.45,0.43-0.65,0.75
		c-0.12,0.19-0.15,0.5,0.06,0.6c0.49,0.23,0.99,0.56,1.53,0.41c0.19,0.01,0.36-0.07,0.48-0.2c0.14-0.14,0.21-0.32,0.26-0.5
		c0.07-0.14,0.08-0.15,0.12-0.31C58.01,61.73,58.13,61.5,58.09,61.43z"/>
	<path id="XMLID_123_" class="st8" d="M60.79,68.34c-0.03-0.05-0.06-0.1-0.09-0.15c-0.02-0.2-0.12-0.42-0.35-0.45
		c-0.04-0.01-0.29-0.09-0.36-0.1c-0.18-0.05-0.37-0.05-0.56-0.02c-0.12,0.01-0.52,0.16-0.6,0.23c-0.32,0.19-0.45,0.43-0.65,0.75
		c-0.12,0.19-0.15,0.5,0.06,0.6c0.49,0.23,0.99,0.56,1.53,0.41c0.19,0.01,0.36-0.07,0.48-0.2c0.14-0.14,0.21-0.32,0.26-0.5
		c0.07-0.14,0.08-0.15,0.12-0.31C60.71,68.64,60.83,68.41,60.79,68.34z"/>
	<path id="XMLID_122_" class="st8" d="M66.42,63.12c-0.02-0.03-0.04-0.06-0.05-0.09c-0.01-0.12-0.08-0.26-0.21-0.27
		c-0.02,0-0.18-0.05-0.22-0.06c-0.11-0.03-0.22-0.03-0.34-0.01c-0.07,0-0.32,0.1-0.36,0.14c-0.19,0.12-0.27,0.26-0.39,0.46
		c-0.07,0.12-0.09,0.3,0.04,0.36c0.29,0.14,0.6,0.34,0.93,0.25c0.12,0,0.22-0.05,0.29-0.12c0.09-0.09,0.13-0.19,0.15-0.31
		c0.04-0.09,0.05-0.09,0.07-0.19C66.37,63.31,66.44,63.16,66.42,63.12z"/>
	<path id="XMLID_121_" class="st8" d="M77,58.3c-0.02-0.02-0.02-0.04-0.04-0.06c-0.01-0.09-0.05-0.18-0.15-0.19
		c-0.02,0-0.12-0.04-0.15-0.05c-0.08-0.02-0.16-0.02-0.24-0.01c-0.05,0-0.22,0.07-0.26,0.1c-0.14,0.09-0.19,0.19-0.28,0.32
		c-0.05,0.09-0.07,0.22,0.03,0.26c0.21,0.1,0.43,0.24,0.67,0.18c0.09,0,0.15-0.03,0.21-0.09c0.06-0.06,0.09-0.14,0.11-0.22
		c0.03-0.06,0.03-0.07,0.05-0.14C76.97,58.43,77.02,58.33,77,58.3z"/>
	<path id="XMLID_120_" class="st8" d="M93.64,62.55c-0.02-0.02-0.02-0.04-0.04-0.06c-0.01-0.09-0.05-0.18-0.15-0.19
		c-0.02,0-0.12-0.04-0.15-0.05c-0.08-0.02-0.16-0.02-0.24-0.01c-0.05,0-0.22,0.07-0.26,0.1c-0.14,0.09-0.19,0.19-0.28,0.32
		c-0.05,0.09-0.07,0.22,0.03,0.26c0.21,0.1,0.43,0.24,0.67,0.18c0.09,0,0.15-0.03,0.21-0.09c0.06-0.06,0.09-0.14,0.11-0.22
		c0.03-0.06,0.03-0.07,0.05-0.14C93.61,62.69,93.66,62.58,93.64,62.55z"/>
	<path id="XMLID_119_" class="st8" d="M117.16,63.79c-0.02-0.02-0.02-0.04-0.04-0.06c-0.01-0.09-0.05-0.18-0.15-0.19
		c-0.02,0-0.12-0.04-0.15-0.05c-0.08-0.02-0.16-0.02-0.24-0.01c-0.05,0-0.22,0.07-0.26,0.1c-0.14,0.09-0.19,0.19-0.28,0.32
		c-0.05,0.09-0.07,0.22,0.03,0.26c0.21,0.1,0.43,0.24,0.67,0.18c0.09,0,0.15-0.03,0.21-0.09c0.06-0.06,0.09-0.14,0.11-0.22
		c0.03-0.06,0.03-0.07,0.05-0.14C117.13,63.93,117.18,63.82,117.16,63.79z"/>
	<path id="XMLID_118_" class="st8" d="M148.4,66.94c0,0-3.23,3.23-4.36,2.67c0,0,5.69,3.08,11.88-2.14L148.4,66.94z"/>
	<g id="XMLID_115_">
		<path id="XMLID_117_" class="st8" d="M148.01,64.05c0,0-0.89,0.46-2.18,1.21c-0.64,0.38-1.38,0.83-2.17,1.34
			c-0.77,0.51-1.59,1.08-2.28,1.75c-0.33,0.32-0.66,0.73-0.71,1.04c-0.02,0.08-0.01,0.12,0.01,0.17c0.02,0.06,0.07,0.13,0.12,0.18
			c0.09,0.11,0.23,0.16,0.39,0.19c0.34,0.07,0.75-0.01,1.13-0.12c0.19-0.05,0.38-0.12,0.56-0.19c0.19-0.06,0.36-0.12,0.53-0.2
			c0.68-0.27,1.23-0.56,1.62-0.76c0.39-0.2,0.62-0.3,0.62-0.3l0.05,0.06c0,0-0.18,0.18-0.52,0.46c-0.16,0.15-0.37,0.32-0.63,0.5
			c-0.25,0.19-0.53,0.39-0.87,0.59c-0.32,0.2-0.7,0.39-1.14,0.55c-0.43,0.16-0.93,0.28-1.52,0.19c-0.58-0.11-1.26-0.7-1.07-1.49
			c0.2-0.65,0.63-0.98,1.01-1.34c0.79-0.67,1.65-1.2,2.47-1.68c0.81-0.47,1.6-0.87,2.27-1.2c1.35-0.66,2.27-1.04,2.27-1.04
			L148.01,64.05z"/>
	</g>
	<g id="XMLID_112_">
		<path id="XMLID_308_" class="st8" d="M129.38,58.11c-1.14,1.43-2.12,2.99-2.88,4.62c-0.76,1.63-1.32,3.36-1.41,5.1
			c-0.04,0.87,0.03,1.73,0.26,2.54c0.23,0.81,0.6,1.57,1.1,2.24c0.49,0.68,1.07,1.28,1.69,1.87c0.63,0.58,1.33,1.11,2.06,1.61
			l0.19,0.13l0.04,0.09c0.04,0.09,0.12,0.21,0.19,0.32c0.07,0.12,0.15,0.22,0.23,0.32c0.17,0.21,0.36,0.4,0.56,0.57
			c0.11,0.09,0.22,0.15,0.33,0.22s0.24,0.13,0.37,0.18c0.13,0.05,0.27,0.09,0.41,0.12c0.14,0.04,0.29,0.04,0.45,0.05l0.03,0.15
			c-0.15,0.05-0.3,0.12-0.47,0.15c-0.16,0.03-0.33,0.05-0.5,0.05s-0.34-0.02-0.52-0.05c-0.17-0.03-0.34-0.09-0.5-0.15
			c-0.32-0.13-0.63-0.31-0.9-0.53c-0.14-0.11-0.27-0.22-0.39-0.35c-0.13-0.12-0.23-0.24-0.36-0.42l0.23,0.22
			c-0.43-0.21-0.87-0.42-1.27-0.67c-0.41-0.26-0.82-0.52-1.2-0.83c-0.77-0.61-1.45-1.35-1.96-2.21c-1.04-1.73-1.42-3.81-1.16-5.72
			c0.25-1.93,0.96-3.71,1.9-5.32c0.94-1.61,2.07-3.09,3.37-4.41L129.38,58.11z"/>
	</g>
	<g id="XMLID_109_">
		<path id="XMLID_111_" class="st8" d="M131.33,62.15c-0.16,0.46-0.29,0.94-0.39,1.43c-0.11,0.48-0.19,0.97-0.25,1.45
			c-0.06,0.49-0.09,0.97-0.09,1.46c0.01,0.24-0.01,0.49,0.02,0.73l0.07,0.72l0.13,0.7c0.03,0.24,0.12,0.46,0.19,0.69
			c0.05,0.23,0.14,0.45,0.25,0.67c0.1,0.21,0.16,0.44,0.3,0.63l0.36,0.6c0.13,0.19,0.29,0.36,0.44,0.53l0.22,0.26l0.26,0.22
			l0.52,0.46l-0.15-0.09c0.67,0.23,1.38,0.44,2.07,0.59c0.34,0.07,0.69,0.12,1.01,0.15c0.15,0,0.31,0.01,0.43-0.02
			c0.08,0,0.1-0.02,0.15-0.03c0.05-0.01,0.02-0.03,0.04-0.02l-0.35,0.56l-0.01-0.73l-0.04-0.75c-0.03-0.5-0.09-0.99-0.17-1.46
			c-0.03-0.24-0.1-0.46-0.15-0.7c-0.07-0.22-0.12-0.44-0.22-0.63c-0.04-0.1-0.09-0.2-0.15-0.29c-0.05-0.09-0.09-0.19-0.16-0.26
			c-0.06-0.07-0.12-0.16-0.19-0.22c-0.07-0.05-0.15-0.12-0.22-0.19l-0.29-0.26l-0.02-0.15c-0.05-0.38-0.06-0.72-0.07-1.08
			c-0.01-0.36,0-0.71,0.04-1.08c0.06-0.71,0.2-1.45,0.56-2.07l0.15,0.05c-0.08,0.68-0.01,1.34,0.09,2c0.05,0.32,0.12,0.66,0.19,0.98
			c0.07,0.32,0.16,0.65,0.24,0.95l-0.32-0.42l0.45,0.26c0.15,0.09,0.26,0.22,0.39,0.32c0.13,0.11,0.22,0.24,0.32,0.37
			c0.11,0.13,0.19,0.26,0.26,0.4c0.17,0.27,0.28,0.55,0.39,0.84c0.1,0.28,0.19,0.56,0.25,0.85c0.13,0.56,0.2,1.14,0.22,1.69
			c0.01,0.28,0.01,0.56,0,0.84c-0.02,0.29-0.03,0.55-0.07,0.86l-0.05,0.43l-0.29,0.14c-0.15,0.07-0.36,0.16-0.48,0.18
			c-0.14,0.02-0.29,0.05-0.4,0.05c-0.25,0.01-0.46-0.02-0.68-0.05c-0.42-0.06-0.8-0.16-1.18-0.27c-0.75-0.22-1.45-0.48-2.17-0.79
			l-0.1-0.05l-0.04-0.04l-0.57-0.56l-0.29-0.29l-0.24-0.32c-0.15-0.22-0.32-0.43-0.46-0.66l-0.37-0.71
			c-0.13-0.23-0.19-0.5-0.29-0.73c-0.1-0.25-0.18-0.5-0.22-0.76c-0.05-0.26-0.13-0.51-0.15-0.77l-0.08-0.77l-0.01-0.77
			c-0.01-0.26,0.03-0.51,0.05-0.77c0.05-0.51,0.12-1.01,0.23-1.51c0.21-0.99,0.52-1.96,0.94-2.87L131.33,62.15z"/>
	</g>
	<path id="XMLID_108_" class="st13" d="M11.25,67.18"/>
	<path id="XMLID_107_" class="st13" d="M8.09,73.24"/>
	<g id="XMLID_104_">
		<path id="XMLID_178_" class="st8" d="M144.64,64.08c0,0-0.31,0.27-0.86,0.46c-0.27,0.1-0.6,0.17-0.97,0.19
			c-0.36,0-0.75-0.05-1.14-0.14c-0.19-0.03-0.38-0.09-0.56-0.15c-0.19-0.05-0.36-0.15-0.53-0.22c-0.16-0.09-0.31-0.2-0.45-0.3
			c-0.12-0.12-0.23-0.24-0.32-0.36c-0.08-0.12-0.14-0.24-0.2-0.35c-0.06-0.1-0.08-0.21-0.1-0.29c-0.05-0.15-0.08-0.25-0.08-0.25
			l0.08-0.02c0,0,0.05,0.08,0.12,0.22c0.05,0.06,0.08,0.15,0.15,0.24c0.07,0.08,0.15,0.17,0.24,0.26c0.1,0.08,0.22,0.15,0.33,0.24
			c0.14,0.05,0.26,0.14,0.42,0.19c0.15,0.04,0.3,0.1,0.48,0.12c0.16,0.03,0.33,0.05,0.51,0.05c0.34,0.02,0.7-0.04,1.01-0.05
			c0.32-0.02,0.63-0.01,0.91,0c0.54,0.02,0.94,0.09,0.94,0.09L144.64,64.08z"/>
	</g>
	<g id="XMLID_13_">
		<path id="XMLID_33_" class="st8" d="M90.65,78.18c-0.18,1.34-0.48,2.66-0.84,3.97c-0.18,0.66-0.39,1.3-0.61,1.94
			s-0.46,1.28-0.75,1.9c-0.55,1.25-1.2,2.48-2.06,3.61c-0.22,0.28-0.43,0.56-0.68,0.83c-0.24,0.27-0.5,0.53-0.79,0.76
			c-0.29,0.24-0.6,0.46-0.92,0.65l-0.51,0.27l-0.55,0.22l-0.43,0.16l-0.35-0.36c-0.22-0.22-0.39-0.43-0.58-0.64
			c-0.18-0.22-0.36-0.43-0.53-0.65c-0.33-0.44-0.64-0.9-0.94-1.37c-0.58-0.94-1.11-1.9-1.54-2.92c-0.22-0.5-0.41-1.02-0.6-1.53
			c-0.18-0.53-0.35-1.04-0.48-1.58c-0.26-1.06-0.46-2.14-0.56-3.23l-0.01-0.09l0.01-0.04c0.03-0.16,0.07-0.28,0.11-0.42
			c0.04-0.13,0.09-0.26,0.15-0.38c0.12-0.25,0.26-0.49,0.44-0.71c0.19-0.22,0.42-0.41,0.68-0.54c0.26-0.14,0.56-0.19,0.84-0.2
			l0.08-0.01l0.05,0.02c0.54,0.22,1.14,0.39,1.73,0.48c0.3,0.05,0.6,0.07,0.9,0.05c0.3-0.02,0.6-0.07,0.88-0.22
			c-0.49,0.4-1.18,0.53-1.81,0.53c-0.65,0.02-1.28-0.07-1.92-0.22l0.13,0.02c-0.39,0.07-0.69,0.29-0.91,0.6
			c-0.1,0.16-0.19,0.34-0.25,0.53c-0.03,0.09-0.06,0.19-0.08,0.29c-0.02,0.09-0.04,0.22-0.04,0.29v-0.13
			c0.21,1.02,0.46,2.03,0.8,3.01c0.16,0.49,0.34,0.98,0.53,1.45c0.2,0.49,0.4,0.95,0.63,1.42c0.46,0.93,0.94,1.83,1.5,2.69
			c0.28,0.43,0.58,0.85,0.89,1.25c0.15,0.2,0.31,0.4,0.47,0.6c0.15,0.19,0.33,0.39,0.48,0.55l-0.77-0.19l0.39-0.15l0.38-0.19
			c0.25-0.15,0.5-0.31,0.73-0.5c0.23-0.19,0.46-0.39,0.68-0.61c0.22-0.22,0.43-0.45,0.63-0.7c0.41-0.48,0.78-1.01,1.13-1.55
			c0.36-0.54,0.69-1.11,1.01-1.69C88.69,83.18,89.71,80.7,90.65,78.18z"/>
	</g>
	<path id="XMLID_102_" class="st14" d="M80.95,82.19"/>
	<g id="XMLID_99_">
		<path id="XMLID_101_" class="st8" d="M80.95,89.58c0,0,0.39-0.32,0.96-0.84c0.57-0.51,1.31-1.22,2-1.98
			c0.69-0.76,1.32-1.56,1.7-2.23c0.11-0.16,0.17-0.32,0.25-0.46s0.13-0.26,0.16-0.37c0.08-0.21,0.12-0.33,0.12-0.33
			s-0.04,0.12-0.09,0.34c-0.03,0.11-0.07,0.24-0.13,0.39c-0.06,0.15-0.12,0.32-0.21,0.49c-0.32,0.7-0.89,1.59-1.51,2.42
			c-1.25,1.67-2.74,3.14-2.74,3.14c-0.15,0.15-0.39,0.15-0.55,0c-0.15-0.15-0.15-0.39,0-0.55C80.93,89.6,80.94,89.59,80.95,89.58z"
			/>
	</g>
	<g id="XMLID_96_">
		<path id="XMLID_98_" class="st8" d="M78.85,84.74c0.02,0,0.06,0.02,0.22,0.05c0.15,0.02,0.38,0.04,0.65,0.03
			c0.27-0.02,0.6-0.05,0.94-0.16c0.34-0.09,0.7-0.24,1.04-0.43c0.16-0.1,0.34-0.19,0.5-0.3c0.15-0.12,0.32-0.21,0.46-0.33
			c0.29-0.22,0.54-0.46,0.75-0.67c0.22-0.2,0.36-0.4,0.49-0.53c0.12-0.13,0.18-0.21,0.18-0.21s-0.05,0.09-0.15,0.22
			c-0.1,0.14-0.22,0.36-0.42,0.59c-0.19,0.24-0.41,0.51-0.67,0.78c-0.12,0.15-0.29,0.26-0.43,0.4s-0.32,0.25-0.48,0.38
			c-0.33,0.24-0.7,0.44-1.06,0.6c-0.36,0.15-0.73,0.25-1.04,0.31c-0.32,0.05-0.6,0.06-0.79,0.06c-0.19-0.01-0.34-0.03-0.32-0.03
			L78.85,84.74z"/>
	</g>
	<g id="XMLID_10_">
		<path id="XMLID_35_" class="st8" d="M59.86,75.58c-0.41,0.82-0.88,1.62-1.4,2.37c-0.52,0.77-1.08,1.5-1.68,2.21
			c-0.29,0.36-0.6,0.7-0.93,1.04c-0.32,0.33-0.65,0.67-0.99,0.99c-0.34,0.32-0.69,0.63-1.06,0.93c-0.36,0.31-0.75,0.57-1.13,0.86
			l0.12-0.11c-0.47,0.51-0.94,0.97-1.49,1.41c-0.27,0.22-0.56,0.43-0.9,0.62c-0.17,0.09-0.36,0.19-0.58,0.26
			c-0.24,0.06-0.46,0.15-0.94,0.04c0.04,0.02-0.31-0.12-0.36-0.19c-0.11-0.09-0.19-0.19-0.25-0.29c-0.11-0.19-0.15-0.33-0.18-0.46
			c-0.05-0.26-0.05-0.45-0.05-0.64c0-0.37,0.03-0.7,0.06-1.04c0.06-0.66,0.14-1.28,0.19-1.92l0.03,0.28
			c-0.12-0.36-0.26-0.76-0.42-1.13c-0.15-0.38-0.33-0.75-0.5-1.13c-0.36-0.74-0.75-1.46-1.21-2.15c-0.23-0.34-0.46-0.68-0.71-1
			s-0.51-0.63-0.8-0.93l-0.2-0.22c-0.1-0.09-0.18-0.19-0.26-0.29c-0.16-0.21-0.31-0.43-0.39-0.74c-0.09-0.29-0.04-0.73,0.19-1
			c0.21-0.26,0.46-0.39,0.69-0.49L45,72.85c-0.11-0.03-0.06-0.01-0.08-0.02c0,0,0,0,0.01,0h0.05h0.11l0.23-0.01l0.48-0.04l0.97-0.11
			l1.96-0.22c-0.62,0.23-1.25,0.45-1.88,0.65c-0.32,0.1-0.63,0.19-0.96,0.28l-0.49,0.12l-0.26,0.05l-0.14,0.02l-0.08,0.01h-0.05
			c-0.03-0.01-0.01,0.02-0.14-0.02l0.29-0.02c-0.15,0.09-0.28,0.19-0.32,0.28s-0.03,0.12,0.02,0.22c0.05,0.1,0.15,0.23,0.26,0.35
			c0.06,0.05,0.13,0.12,0.19,0.16l0.26,0.22c0.34,0.29,0.66,0.61,0.97,0.94c0.3,0.33,0.6,0.67,0.87,1.02
			c0.53,0.71,1.01,1.47,1.43,2.25c0.21,0.39,0.4,0.79,0.58,1.2l0.26,0.62c0.09,0.21,0.16,0.41,0.24,0.65l0.04,0.12l-0.01,0.15
			c-0.04,0.67-0.1,1.32-0.16,1.96c-0.03,0.32-0.06,0.63-0.06,0.91c0,0.13,0.01,0.26,0.02,0.32c0,0.03,0.02,0.04-0.02-0.01
			c-0.02-0.02-0.05-0.06-0.09-0.1c-0.02-0.02-0.05-0.04-0.11-0.07c-0.02-0.01-0.08-0.02-0.06-0.02l0.03,0.01
			c-0.15-0.03-0.05,0,0.02-0.04c0.09-0.02,0.19-0.08,0.31-0.13c0.23-0.12,0.47-0.29,0.7-0.47c0.46-0.37,0.95-0.79,1.38-1.21
			l0.06-0.06l0.06-0.04c0.36-0.25,0.74-0.47,1.09-0.74c0.36-0.26,0.71-0.53,1.06-0.8c0.7-0.55,1.37-1.14,2.03-1.75
			C57.4,78.28,58.66,76.97,59.86,75.58z"/>
	</g>
	<g id="XMLID_90_">
		<polygon id="XMLID_151_" class="st8" points="45.51,75.19 48.69,74.86 46.04,76.64 		"/>
	</g>
	<path id="XMLID_89_" class="st15" d="M48.03,78.93"/>
	<g id="XMLID_82_">
		<polygon id="XMLID_95_" class="st8" points="47.7,78.24 52.93,76.58 48.36,79.63 		"/>
	</g>
	<path id="XMLID_79_" class="st15" d="M48.69,81.71"/>
	<g id="XMLID_76_">
		<polygon id="XMLID_92_" class="st8" points="48.44,81.05 55.27,77.76 49.25,82.37 		"/>
	</g>
	<g id="XMLID_73_">
		<path id="XMLID_162_" class="st8" d="M34.87,70.87c0,0,0.94-0.44,2.34-0.99c1.42-0.56,3.33-1.22,5.28-1.73
			c0.49-0.14,0.98-0.23,1.47-0.35c0.49-0.11,0.97-0.18,1.44-0.27c0.46-0.07,0.93-0.12,1.35-0.18c0.43-0.02,0.84-0.05,1.22-0.08
			c0.38-0.02,0.73,0.01,1.03,0.02c0.31-0.01,0.57,0.04,0.79,0.07c0.43,0.05,0.68,0.09,0.68,0.09s-0.25-0.01-0.69-0.02
			c-0.22-0.01-0.48-0.02-0.78,0.01c-0.3,0.02-0.64,0.04-1.01,0.09c-0.36,0.06-0.77,0.12-1.18,0.19c-0.42,0.09-0.86,0.19-1.31,0.3
			c-0.45,0.13-0.91,0.25-1.38,0.39c-0.46,0.15-0.94,0.29-1.4,0.48c-1.86,0.68-3.66,1.51-4.98,2.18c-1.33,0.67-2.16,1.17-2.16,1.17
			L34.87,70.87z"/>
	</g>
	<g id="XMLID_69_">
		<path id="XMLID_72_" class="st8" d="M52.06,70.63c0,0,3.64,0.63,9.1,1.59c2.73,0.48,5.92,0.99,9.34,1.55
			c3.42,0.56,7.06,1.11,10.72,1.61c3.65,0.53,7.31,0.99,10.75,1.33c1.72,0.16,3.38,0.32,4.97,0.43c1.58,0.11,3.08,0.19,4.46,0.22
			c1.38,0.03,2.65,0.03,3.77-0.01c1.12-0.04,2.1-0.14,2.89-0.23c0.79-0.14,1.42-0.22,1.83-0.36c0.42-0.12,0.64-0.17,0.64-0.17
			s-0.22,0.08-0.63,0.22c-0.4,0.16-1.03,0.3-1.82,0.47c-0.8,0.13-1.77,0.28-2.9,0.37s-2.4,0.15-3.79,0.15
			c-1.39,0.01-2.89-0.03-4.49-0.09c-1.59-0.07-3.26-0.17-5-0.33c-3.46-0.31-7.13-0.73-10.8-1.24c-3.66-0.53-7.31-1.12-10.73-1.72
			c-3.42-0.59-6.58-1.24-9.31-1.79c-2.72-0.55-4.97-1.08-6.54-1.42C52.96,70.84,52.06,70.63,52.06,70.63z"/>
	</g>
	<g id="XMLID_6_">
		<path id="XMLID_84_" class="st8" d="M112.04,80.29c0,0,0.62-0.41,1.55-0.91c0.95-0.5,2.25-1.09,3.62-1.51
			c0.34-0.11,0.69-0.19,1.03-0.28c0.35-0.07,0.68-0.14,1.01-0.19c0.33-0.03,0.65-0.08,0.96-0.09c0.31,0,0.6-0.02,0.86-0.01
			c0.26,0.02,0.5,0.05,0.72,0.07c0.22,0.02,0.39,0.08,0.54,0.11c0.3,0.07,0.47,0.11,0.47,0.11s-0.17-0.02-0.48-0.05
			c-0.15-0.01-0.33-0.05-0.55-0.05c-0.21,0-0.45,0.01-0.71,0.01c-0.26,0.02-0.54,0.06-0.84,0.09c-0.29,0.05-0.6,0.12-0.91,0.19
			c-0.31,0.09-0.63,0.19-0.95,0.28c-0.32,0.12-0.64,0.23-0.96,0.37c-1.27,0.53-2.46,1.23-3.31,1.8c-0.86,0.58-1.37,1-1.37,1
			c-0.25,0.2-0.61,0.17-0.82-0.08c-0.2-0.25-0.17-0.61,0.08-0.82C112,80.31,112.02,80.3,112.04,80.29L112.04,80.29z"/>
	</g>
	<g id="XMLID_3_">
		<path id="XMLID_78_" class="st8" d="M110.24,83.99c0,0,2.09-1.01,4.22-1.9c1.07-0.45,2.15-0.87,2.99-1.11
			c0.21-0.07,0.4-0.11,0.57-0.15c0.17-0.05,0.32-0.05,0.46-0.08c0.12-0.03,0.23,0,0.29,0c0.07,0.01,0.1,0.01,0.1,0.01
			s-0.04,0-0.1,0.01c-0.07,0.01-0.16-0.01-0.29,0.03c-0.12,0.04-0.27,0.06-0.43,0.13c-0.16,0.06-0.35,0.12-0.54,0.22
			c-0.79,0.35-1.79,0.89-2.79,1.46c-1.99,1.14-3.91,2.4-3.91,2.4c-0.27,0.18-0.63,0.1-0.8-0.17c-0.18-0.27-0.1-0.63,0.17-0.8
			C110.2,84.02,110.22,84,110.24,83.99z"/>
	</g>
	<path id="XMLID_2_" class="st8" d="M32.88,69.36c-0.03-0.05-0.06-0.1-0.09-0.15c-0.02-0.2-0.12-0.42-0.35-0.45
		c-0.04-0.01-0.29-0.09-0.36-0.1c-0.18-0.05-0.37-0.05-0.56-0.02c-0.12,0.01-0.52,0.16-0.6,0.23c-0.32,0.19-0.45,0.43-0.65,0.75
		c-0.12,0.19-0.15,0.5,0.06,0.6c0.49,0.23,0.99,0.56,1.53,0.41c0.19,0.01,0.36-0.07,0.48-0.2c0.14-0.14,0.21-0.32,0.26-0.5
		c0.07-0.14,0.08-0.15,0.12-0.31C32.8,69.67,32.91,69.43,32.88,69.36z"/>
	<g id="XMLID_303_">
		<path id="XMLID_310_" class="st8" d="M139.52,56.31c0,0,0.02,0.46-0.12,0.9c-0.06,0.23-0.16,0.46-0.32,0.67
			c-0.16,0.2-0.43,0.34-0.61,0.56c-0.37,0.42-0.7,0.86-0.87,1.25c-0.08,0.19-0.14,0.36-0.15,0.49c-0.02,0.13-0.04,0.2-0.04,0.2
			l-0.15,0.03c0,0-0.03-0.08-0.09-0.21c-0.03-0.07-0.06-0.15-0.07-0.26c-0.02-0.1-0.04-0.22-0.05-0.35c-0.02-0.26,0-0.56,0.07-0.87
			c0.06-0.31,0.17-0.63,0.3-0.94s0.22-0.64,0.39-0.9c0.19-0.24,0.43-0.41,0.67-0.51c0.46-0.22,0.93-0.19,0.93-0.19L139.52,56.31z"/>
	</g>
	<path id="XMLID_113_" class="st8" d="M134.62,58.14c-0.02-0.03-0.04-0.06-0.05-0.09c-0.01-0.12-0.08-0.26-0.21-0.27
		c-0.02,0-0.18-0.05-0.22-0.06c-0.11-0.03-0.22-0.03-0.34-0.01c-0.07,0-0.32,0.1-0.36,0.14c-0.19,0.12-0.27,0.26-0.39,0.46
		c-0.07,0.12-0.09,0.3,0.04,0.36c0.29,0.14,0.6,0.34,0.93,0.25c0.12,0,0.22-0.05,0.29-0.12c0.09-0.09,0.13-0.19,0.15-0.31
		c0.04-0.09,0.05-0.09,0.07-0.19C134.57,58.33,134.64,58.18,134.62,58.14z"/>
	<g id="XMLID_160_">
		<path id="XMLID_318_" class="st8" d="M44.36,57.3c0,0-1.11,0.61-2.86,1.23c-0.87,0.32-1.92,0.63-3.05,0.89
			c-0.57,0.11-1.16,0.23-1.76,0.32s-1.21,0.19-1.83,0.26c-1.23,0.17-2.47,0.3-3.63,0.37c-0.58,0.05-1.14,0.05-1.68,0.06
			c-0.53,0.02-1.04-0.02-1.51-0.05c-0.46-0.01-0.89-0.08-1.27-0.12c-0.38-0.04-0.7-0.09-0.97-0.16c-0.53-0.12-0.83-0.19-0.83-0.19
			l0.03-0.12c0,0,0.3,0.04,0.84,0.12c0.26,0.05,0.59,0.07,0.96,0.07c0.37,0.01,0.79,0.04,1.25,0c0.46-0.02,0.95-0.03,1.48-0.09
			c0.53-0.06,1.08-0.09,1.64-0.19c1.14-0.15,2.34-0.36,3.54-0.62c1.2-0.25,2.37-0.58,3.5-0.84c1.12-0.26,2.17-0.45,3.08-0.61
			c1.82-0.32,3.06-0.44,3.06-0.44L44.36,57.3z"/>
	</g>
	<path id="XMLID_4_" class="st8" d="M39.16,62.57c-0.02-0.03-0.04-0.06-0.05-0.09c-0.01-0.12-0.08-0.26-0.21-0.27
		c-0.02,0-0.18-0.05-0.22-0.06c-0.11-0.03-0.22-0.03-0.34-0.01c-0.07,0-0.32,0.1-0.36,0.14c-0.19,0.12-0.27,0.26-0.39,0.46
		c-0.07,0.12-0.09,0.3,0.04,0.36c0.29,0.14,0.6,0.34,0.93,0.25c0.12,0,0.22-0.05,0.29-0.12c0.09-0.09,0.13-0.19,0.15-0.31
		c0.04-0.09,0.05-0.09,0.07-0.19C39.11,62.75,39.18,62.6,39.16,62.57z"/>
</g>
</svg>
