<?xml version="1.0" encoding="utf-8"?>
<!-- Generator: Adobe Illustrator 23.0.1, SVG Export Plug-In . SVG Version: 6.00 Build 0)  -->
<svg version="1.1" id="youtube_x5F_hover" xmlns="http://www.w3.org/2000/svg" xmlns:xlink="http://www.w3.org/1999/xlink" x="0px"
	 y="0px" viewBox="0 0 89.3 89.3" style="enable-background:new 0 0 89.3 89.3;" xml:space="preserve">
<style type="text/css">
	.st0{fill:#FFFFFF;}
	.st1{fill-rule:evenodd;clip-rule:evenodd;fill:#9ABD4B;}
</style>
<circle id="white" class="st0" cx="44.7" cy="44.7" r="35.4"/>
<path id="line_x5F_circle" class="st0" d="M44.7,0C57,0,68.2,5,76.3,13.1c8.1,8.1,13.1,19.2,13.1,31.6c0,12.3-5,23.5-13.1,31.6
	C68.2,84.3,57,89.3,44.7,89.3c-12.3,0-23.5-5-31.6-13.1C5,68.2,0,57,0,44.7c0-12.3,5-23.5,13.1-31.6C21.2,5,32.3,0,44.7,0L44.7,0z
	 M73.8,15.6C66.3,8.1,56.1,3.5,44.7,3.5C33.3,3.5,23,8.1,15.6,15.6C8.1,23,3.5,33.3,3.5,44.7c0,11.4,4.6,21.7,12.1,29.1
	c7.4,7.4,17.7,12,29.1,12c11.4,0,21.7-4.6,29.1-12c7.4-7.5,12-17.8,12-29.1C85.9,33.3,81.3,23,73.8,15.6L73.8,15.6z"/>
<path id="youtube" class="st1" d="M64.2,37.7c0,0-0.4-2.6-1.5-3.8c-1.4-1.5-3-1.5-3.7-1.6c-5.1-0.4-12.8-0.4-12.8-0.4h0
	c0,0-7.7,0-12.8,0.4c-0.7,0.1-2.3,0.1-3.7,1.6c-1.1,1.2-1.5,3.8-1.5,3.8s-0.4,3.1-0.4,6.2v0.4v2.5c0,3.1,0.4,6.2,0.4,6.2
	s0.4,2.6,1.5,3.8c1.4,1.5,3.2,1.5,4.1,1.6c2.9,0.3,12.5,0.4,12.5,0.4s7.7,0,12.8-0.4c0.7-0.1,2.3-0.1,3.7-1.6
	c1.1-1.2,1.5-3.8,1.5-3.8s0.4-3.1,0.4-6.2v-2.4v-0.6C64.6,40.8,64.2,37.7,64.2,37.7L64.2,37.7z M52.4,44.9l-9.9,5.3V42v-2.5L47,42
	L52.4,44.9z"/>
</svg>
