<?xml version="1.0" encoding="utf-8"?>
<!-- Generator: Adobe Illustrator 23.0.1, SVG Export Plug-In . SVG Version: 6.00 Build 0)  -->
<svg version="1.1" id="youtube_1_" xmlns="http://www.w3.org/2000/svg" xmlns:xlink="http://www.w3.org/1999/xlink" x="0px" y="0px"
	 viewBox="0 0 51.9 51.9" style="enable-background:new 0 0 51.9 51.9;" xml:space="preserve">
<style type="text/css">
	.st0{fill:#FFFFFF;}
	.st1{fill-rule:evenodd;clip-rule:evenodd;fill:#5D7132;}
</style>
<circle id="circle" class="st0" cx="26" cy="26" r="26"/>
<path id="youtube" class="st1" d="M40.6,20.1c0,0-0.3-2-1.1-2.9c-1.1-1.2-2.3-1.2-2.8-1.2c-3.9-0.3-9.8-0.3-9.8-0.3h0
	c0,0-5.9,0-9.8,0.3c-0.6,0.1-1.7,0.1-2.8,1.2c-0.8,0.9-1.1,2.9-1.1,2.9s-0.3,2.4-0.3,4.7v0.3v1.9c0,2.4,0.3,4.7,0.3,4.7
	s0.3,2,1.1,2.9c1.1,1.2,2.5,1.1,3.1,1.2c2.2,0.2,9.5,0.3,9.5,0.3s5.9,0,9.8-0.3c0.5-0.1,1.7-0.1,2.8-1.2c0.8-0.9,1.1-2.9,1.1-2.9
	s0.3-2.3,0.3-4.7v-1.8v-0.4C40.9,22.5,40.6,20.1,40.6,20.1L40.6,20.1z M31.6,25.7L24,29.7v-6.3v-1.9l3.4,1.9L31.6,25.7z"/>
</svg>
